<?xml version="1.0" encoding="UTF-8"?>
<!DOCTYPE svg PUBLIC "-//W3C//DTD SVG 1.1//EN" "http://www.w3.org/Graphics/SVG/1.1/DTD/svg11.dtd">
<!-- Creator: CorelDRAW X7 -->
<svg xmlns="http://www.w3.org/2000/svg" xml:space="preserve" width="1074px" height="1024px" version="1.1" style="shape-rendering:geometricPrecision; text-rendering:geometricPrecision; image-rendering:optimizeQuality; fill-rule:evenodd; clip-rule:evenodd"
viewBox="0 0 1074 1024"
 xmlns:xlink="http://www.w3.org/1999/xlink">
 <defs>
  <style type="text/css">
   <![CDATA[
    .fil0 {fill:none}
    .fil1 {fill:#434546;fill-rule:nonzero}
   ]]>
  </style>
 </defs>
 <g id="Layer_x0020_1">
  <metadata id="CorelCorpID_0Corel-Layer"/>
  <rect class="fil0" width="1074" height="1024"/>
  <g id="_537656592">
   <path class="fil1" d="M835 602c0,30 2,59 2,88 -1,64 -42,78 -96,78 0,-9 0,-18 0,-27 82,21 67,-63 65,-120 -2,-58 12,-143 -65,-132 0,-6 0,-13 1,-19 31,0 71,-4 89,29 12,23 3,78 4,103zm-108 -108c-1,41 -1,81 -1,122 0,81 -1,162 -1,243 0,3 2,5 4,6 -54,39 -115,64 -182,68 -64,3 -148,-12 -190,-64 0,-1 0,-2 0,-4 6,-140 12,-287 -7,-428 8,-2 15,-7 19,-13 -1,66 4,132 5,198 2,71 -2,144 3,215 0,2 1,3 2,3 29,56 95,79 155,78 56,-1 147,-17 176,-72 0,0 0,-1 0,-1 1,-1 2,-2 2,-3 11,-146 5,-301 -7,-446 1,-3 2,-6 2,-8 6,7 14,13 22,17 -5,29 -2,60 -2,89zm-344 118c-2,-65 -1,-131 -8,-196 1,-3 3,-7 3,-10 11,42 42,80 89,77 40,-3 73,-38 72,-76 18,13 50,8 67,-9 10,20 36,32 60,29 12,-2 23,-9 31,-19 1,70 4,140 5,210 2,75 -2,149 2,223 0,1 -1,1 -1,1 -35,48 -113,66 -169,66 -63,1 -114,-23 -151,-73 5,-74 1,-149 0,-223zm-51 -189c-27,-5 -29,-36 -23,-57 1,0 1,0 2,-1 2,-1 1,-3 0,-5 0,0 1,0 1,0 2,-6 -7,-9 -10,-4 -1,2 -2,4 -3,6 -45,9 -88,-24 -83,-73 6,-58 71,-85 113,-42 4,4 11,-1 8,-6 0,-1 0,-1 0,-1 0,-1 1,-2 0,-3 -8,-28 8,-56 40,-52 25,3 34,22 45,41 3,4 9,2 10,-3 0,-8 -2,-15 -6,-22 3,-15 15,-28 30,-31 12,-1 20,3 28,10 0,2 0,5 0,8 1,4 6,4 8,2 1,1 3,2 4,4 2,4 10,3 10,-3 -1,-9 -5,-17 -12,-23 3,-48 25,-96 82,-97 60,-1 83,54 80,105 -1,6 9,7 11,1 0,-1 0,-2 1,-3 2,3 8,2 8,-3 0,-16 21,-21 33,-23 17,-3 34,3 40,20 9,27 -11,47 -28,65 -3,4 1,10 6,8 0,-1 0,-1 0,-1 5,2 9,1 14,0 20,-3 39,-4 49,16 18,33 -14,53 -40,65 -5,2 -3,8 1,10 1,0 1,1 2,1 11,6 21,14 25,27 6,19 -7,36 -26,35 -26,-2 -44,-25 -49,-48 -1,-7 -13,-6 -12,2 0,1 0,3 0,5 0,1 -1,2 -1,3 -3,22 6,46 -24,54 -22,5 -44,-6 -52,-26 2,-6 3,-13 1,-20 -2,-6 -9,-5 -11,0 -5,15 -9,30 -26,36 -17,6 -40,-1 -44,-21 0,-1 -2,-2 -3,-2 0,-1 0,-1 0,-1 -4,-6 -11,-2 -10,4 8,47 -19,101 -76,86 -45,-11 -51,-58 -64,-95 -1,-4 -7,-3 -7,1 0,2 0,3 0,5 0,-2 -2,-4 -3,-5 -2,-4 -8,-1 -6,3 11,23 -6,53 -33,48zm409 193c0,-38 0,-75 0,-113 0,-1 0,-2 0,-4 29,0 45,39 49,64 3,18 2,40 3,58 1,41 16,116 -52,113 0,-39 0,-79 0,-118zm108 4c-1,-39 11,-108 -13,-142 -19,-27 -64,-20 -94,-19 0,-17 0,-34 -3,-50 11,3 22,3 33,-2 17,-8 25,-28 22,-45 -3,-15 -12,-26 -25,-33 26,-8 45,-37 40,-63 -2,-15 -11,-30 -25,-37 -8,-4 -16,-5 -25,-5 -4,1 -8,1 -12,2 0,0 0,0 -1,0 21,-22 29,-59 5,-82 -17,-16 -63,-13 -79,7 1,-50 -45,-96 -96,-96 -63,1 -92,51 -93,106 -11,-5 -23,-7 -34,-4 -14,5 -28,18 -32,33 -14,-14 -37,-21 -54,-18 -25,4 -44,28 -39,51 -41,-37 -112,7 -121,59 -9,55 40,105 92,90 -9,29 4,66 40,67 2,0 4,0 6,0 -3,142 6,284 2,426 0,4 2,6 4,7 22,60 115,75 171,77 80,3 160,-23 222,-74 3,-3 2,-8 -1,-11 1,-1 2,-3 2,-5 0,-27 0,-55 0,-82 33,6 74,5 96,-24 26,-33 13,-95 12,-133z"/>
   <path class="fil1" d="M648 458c-2,2 -6,4 -9,2 -3,-1 -3,-6 -1,-9 2,-2 -2,-5 -4,-3 -5,5 -5,14 1,18 7,5 15,2 18,-5 1,-3 -3,-5 -5,-3z"/>
   <path class="fil1" d="M667 448c-5,-4 -10,-5 -15,-2 -3,2 -1,6 2,4 11,-5 13,12 14,18 0,3 4,2 5,-1 0,-7 -1,-14 -6,-19z"/>
   <path class="fil1" d="M669 478c-6,-3 -12,-3 -16,2 -1,1 0,4 1,3 4,0 8,0 10,2 3,3 4,6 5,9 1,3 5,4 6,1 5,-6 -1,-14 -6,-17z"/>
   <path class="fil1" d="M431 823c-2,2 -6,5 -9,3 -3,-2 -4,-6 -2,-9 2,-3 -2,-6 -4,-4 -5,6 -5,15 2,19 7,4 17,1 18,-7 0,-3 -3,-5 -5,-2z"/>
   <path class="fil1" d="M462 831c-6,-7 -18,-4 -23,2 -5,7 -2,16 4,21 2,2 4,-2 3,-3 -4,-4 -5,-11 -1,-15 4,-3 9,-2 14,0 3,1 4,-3 3,-5z"/>
   <path class="fil1" d="M449 803c-3,2 -7,4 -11,3 -4,-2 -5,-7 -3,-11 2,-3 -2,-5 -4,-3 -4,6 -3,16 4,19 7,4 15,1 18,-6 1,-2 -3,-4 -4,-2z"/>
   <path class="fil1" d="M425 726c-2,3 -5,8 -9,7 -2,0 -4,-4 -2,-5 2,-1 1,-2 0,-2 -7,-1 -7,8 -4,12 7,7 17,-1 20,-8 1,-3 -3,-6 -5,-4z"/>
   <path class="fil1" d="M422 690c-7,3 -11,13 -4,18 3,1 6,-3 3,-4 -3,-3 2,-9 6,-7 4,1 6,7 8,11 1,2 5,1 5,-1 0,-9 -9,-20 -18,-17z"/>
   <path class="fil1" d="M647 702c-2,4 -7,7 -11,5 -4,-2 -5,-7 -3,-11 1,-3 -4,-5 -5,-2 -5,7 -2,17 5,20 8,4 19,0 20,-9 1,-4 -4,-6 -6,-3z"/>
   <path class="fil1" d="M649 685c-2,3 3,7 5,4 5,-5 15,-3 17,3 1,4 7,3 6,-1 0,-14 -21,-19 -28,-6z"/>
   <path class="fil1" d="M670 719c-8,3 -9,12 -4,18 2,2 5,-1 4,-3 -1,-3 0,-8 4,-8 3,0 4,3 6,5 1,2 5,1 6,-1 1,-9 -9,-15 -16,-11z"/>
  </g>
 </g>
</svg>
