<?xml version="1.0" encoding="UTF-8"?>
<!DOCTYPE svg PUBLIC "-//W3C//DTD SVG 1.1//EN" "http://www.w3.org/Graphics/SVG/1.1/DTD/svg11.dtd">
<!-- Creator: CorelDRAW X7 -->
<svg xmlns="http://www.w3.org/2000/svg" xml:space="preserve" width="1074px" height="1024px" version="1.1" style="shape-rendering:geometricPrecision; text-rendering:geometricPrecision; image-rendering:optimizeQuality; fill-rule:evenodd; clip-rule:evenodd"
viewBox="0 0 1074 1024"
 xmlns:xlink="http://www.w3.org/1999/xlink">
 <defs>
  <style type="text/css">
   <![CDATA[
    .fil0 {fill:none}
    .fil2 {fill:#FEFEFE}
    .fil1 {fill:#434546;fill-rule:nonzero}
   ]]>
  </style>
 </defs>
 <g id="Layer_x0020_1">
  <metadata id="CorelCorpID_0Corel-Layer"/>
  <rect class="fil0" width="1074" height="1024"/>
  <g id="_532628288">
   <g>
    <path class="fil1" d="M717 614c-6,18 -19,34 -34,46 5,-7 9,-16 11,-25 15,-84 -70,-149 -88,-226 12,0 23,-2 32,-5 8,43 23,84 47,122 17,28 45,52 32,88zm-39 24c-12,35 -45,39 -78,33 -37,-7 -71,-15 -109,-13 -37,2 -73,10 -109,20 -46,13 -131,53 -146,-21 -9,-41 13,-92 26,-131 13,-41 30,-81 44,-122 1,-2 0,-3 -1,-4 0,0 0,-1 1,-1 2,-2 -1,-6 -4,-4 -98,43 -157,-84 -114,-160 1,-1 2,-2 2,-3 1,-1 2,-2 2,-3 3,-5 7,-10 11,-14 29,-30 73,-43 113,-31 33,9 61,31 95,38 72,14 130,-55 201,-43 48,8 74,54 78,99 6,60 -26,112 -87,121 -3,-4 -10,-1 -9,4 11,62 54,108 77,165 8,22 15,47 7,70zm-411 -482c36,-11 67,0 100,12 49,18 85,16 132,-5 27,-12 53,-27 81,-31 49,-9 90,19 115,59 22,35 39,83 29,124 -8,33 -34,54 -60,73 47,-41 50,-131 13,-182 -27,-36 -68,-47 -111,-36 -33,7 -61,26 -93,35 -45,13 -76,2 -116,-17 -39,-18 -79,-28 -121,-10 -7,3 -13,6 -19,11 13,-15 30,-26 50,-33zm417 350c-18,-31 -31,-65 -39,-100 1,1 2,2 4,1 73,-40 104,-98 74,-178 -23,-65 -76,-122 -150,-106 -39,9 -73,33 -111,44 -53,15 -92,-14 -141,-23 -55,-10 -107,20 -131,68 -15,17 -25,39 -29,63 -7,43 8,91 42,119 27,22 63,30 92,13 -22,44 -38,93 -53,140 -12,38 -30,85 -15,125 13,34 44,45 78,41 61,-8 117,-37 179,-42 31,-2 60,0 90,7 22,5 44,12 67,8 5,-1 10,-2 15,-4 0,1 2,2 3,2 37,-16 86,-61 71,-107 -9,-26 -33,-47 -46,-71z"/>
    <path class="fil1" d="M659 644c-1,0 -3,-1 -4,0 -27,19 -67,-2 -96,-6 -32,-5 -63,-4 -94,0 -34,5 -66,13 -98,24 -33,11 -64,23 -98,15 -52,-30 14,-173 31,-212 13,-29 39,-64 15,-93 -2,-2 -5,1 -4,3 0,0 0,1 0,1 0,-1 -2,-2 -3,-1 -88,72 -150,-96 -86,-154 61,-56 128,11 191,21 25,4 50,2 74,-5 31,-9 57,-28 88,-34 119,-23 126,184 11,177 -3,-1 -5,2 -4,5 -1,-2 -5,-2 -5,1 -2,39 16,72 35,106 22,38 73,109 47,152zm-77 -258c1,2 2,3 4,3 90,10 117,-112 68,-171 -30,-36 -75,-30 -115,-13 -29,12 -56,26 -88,28 -39,3 -71,-9 -105,-25 -77,-35 -159,-5 -157,89 1,37 14,80 50,97 24,12 58,9 72,-17 1,0 1,-1 1,-1 17,34 -15,77 -28,109 -13,31 -23,64 -32,97 -7,30 -27,90 17,102 0,0 0,0 1,0 19,7 40,5 62,-1 43,-12 83,-29 128,-35 47,-7 93,-4 139,9 21,6 42,11 59,-5 1,0 1,0 1,-1 33,-25 9,-67 -5,-97 -26,-57 -61,-105 -72,-168z"/>
    <path class="fil1" d="M643 629c-1,4 -6,7 -9,3 -1,-1 -3,0 -2,1 4,7 15,5 15,-3 0,-2 -3,-3 -4,-1z"/>
    <path class="fil1" d="M650 609c0,-1 -1,0 -2,0 -3,1 -5,3 -8,4 -2,2 0,5 2,4 2,-1 4,-2 7,-4 0,1 1,3 1,4 1,2 4,2 4,0 0,-4 -1,-6 -4,-8z"/>
    <path class="fil1" d="M645 593c-1,-3 -6,-2 -6,1 0,3 -3,6 -6,5 -2,-1 -3,-5 -2,-7 1,-2 -1,-4 -3,-3 -4,5 -3,13 3,16 8,3 16,-4 14,-12z"/>
    <path class="fil1" d="M240 283c-3,1 -7,3 -9,2 -2,-1 -4,-4 -1,-5 2,-1 1,-4 -1,-4 -4,1 -6,6 -4,10 3,7 12,5 17,1 2,-1 1,-4 -2,-4z"/>
    <path class="fil1" d="M241 262c-5,2 -7,8 -4,12 1,2 4,1 3,-1 0,-3 1,-6 3,-7 3,0 5,2 6,4 1,2 3,1 3,0 0,-6 -6,-10 -11,-8z"/>
    <path class="fil1" d="M248 235c0,-2 -3,-1 -3,1 -1,5 -8,10 -13,6 -1,-1 -3,1 -2,2 7,7 21,1 18,-9z"/>
    <path class="fil1" d="M281 232c-2,0 -5,1 -6,-1 -3,-2 0,-5 2,-7 2,-1 1,-3 -1,-4 -7,0 -11,8 -8,14 2,5 12,9 15,3 1,-2 0,-4 -2,-5z"/>
    <path class="fil1" d="M273 251c-7,-1 -12,7 -6,12 1,1 3,-1 2,-2 -1,-1 0,-3 1,-4 2,-1 4,0 5,1 3,3 3,8 4,12 0,2 4,2 4,0 1,-7 0,-19 -10,-19z"/>
    <path class="fil1" d="M371 544c-2,2 -6,3 -9,1 -2,-2 -2,-6 -1,-8 1,-2 -1,-5 -3,-3 -4,5 -4,12 1,16 5,4 13,2 15,-4 2,-2 -1,-4 -3,-2z"/>
    <path class="fil1" d="M361 524c-8,-6 -19,1 -19,10 0,3 3,3 3,0 1,-6 9,-10 15,-8 1,1 2,-1 1,-2z"/>
    <path class="fil1" d="M348 563c-3,0 -5,-2 -5,-5 0,-3 3,-6 4,-8 2,-3 -1,-5 -3,-3 -4,4 -9,10 -6,16 2,5 9,8 13,4 1,-2 0,-5 -3,-4z"/>
    <path class="fil1" d="M329 538c-2,3 -7,12 -12,7 -1,-2 -4,0 -3,2 2,3 6,4 10,3 5,-1 8,-6 9,-10 0,-2 -2,-4 -4,-2z"/>
    <path class="fil1" d="M538 322c-4,1 -8,3 -12,2 -3,-1 -6,-4 -4,-7 1,-2 -1,-3 -2,-2 -4,3 -2,9 1,12 6,4 13,2 18,-2 2,-1 1,-4 -1,-3z"/>
    <path class="fil1" d="M566 301c-4,-4 -10,-6 -16,-4 -3,0 -5,1 -8,3 -1,1 -2,2 -2,3 -1,1 -1,2 -1,3 -1,1 1,2 2,1 1,0 2,-1 3,-1 2,-2 4,-3 6,-3 5,-1 9,0 13,2 2,2 4,-2 3,-4z"/>
    <path class="fil1" d="M571 324c-3,1 -9,3 -12,0 -1,-1 -2,-6 0,-7 3,-1 2,-5 -1,-4 -6,1 -8,9 -5,13 4,8 14,7 20,3 2,-2 1,-6 -2,-5z"/>
    <path class="fil1" d="M599 279c-4,1 -9,3 -12,0 -2,-2 -2,-5 0,-6 2,-1 1,-3 -1,-3 -5,0 -7,6 -5,11 4,7 13,5 19,2 3,-1 1,-4 -1,-4z"/>
   </g>
   <g>
    <g>
     <path class="fil1" d="M923 556c-66,81 -152,150 -239,207 -49,33 -100,61 -154,86 -62,28 -131,57 -201,38 -50,-48 -35,-113 -1,-172 29,28 40,65 49,104 0,3 5,4 7,0 21,-47 17,-117 -19,-156 15,-19 31,-36 46,-49 31,38 42,81 50,129 0,3 3,4 5,3 23,-6 26,-52 27,-71 0,-37 -12,-72 -30,-103 13,-10 27,-19 41,-28 35,32 41,78 53,122 1,3 6,4 8,2 32,-41 17,-113 -11,-153 15,-8 30,-15 46,-22 0,0 0,0 0,1 29,34 45,74 45,119 -1,5 6,6 8,3 19,-24 20,-58 21,-87 1,-21 2,-45 -10,-62 11,-4 22,-8 33,-11 21,31 34,63 36,101 0,3 2,5 5,4 17,-6 22,-38 24,-52 3,-23 0,-46 -9,-68 16,-3 33,-6 50,-8 11,28 18,54 15,85 0,4 5,5 8,3 15,-13 24,-31 27,-50 3,-13 5,-30 -1,-42 8,0 16,0 23,0 30,1 74,-2 86,30 13,34 -17,71 -38,97zm-563 112c30,36 37,93 21,137 -9,-35 -20,-70 -51,-93 9,-15 19,-30 30,-44zm59 -61c12,-11 24,-21 37,-31 15,26 26,54 28,84 1,16 0,32 -4,48 -4,14 -10,39 -15,12 -7,-40 -20,-82 -51,-109 1,-1 3,-3 5,-4zm128 -88c18,38 41,95 17,135 -11,-42 -20,-85 -56,-113 13,-8 26,-15 39,-22zm109 -49c14,18 10,48 9,69 -2,20 -3,41 -12,59 -4,-41 -20,-77 -49,-107 17,-8 35,-15 52,-21zm49 -17c14,-3 27,-7 41,-10 6,18 9,35 8,54 -1,11 -4,40 -13,51 -2,-34 -15,-69 -40,-93 2,-1 3,-1 4,-2zm137 -23c9,10 4,35 1,46 -3,12 -8,21 -15,30 0,-26 -6,-52 -20,-74 11,-1 23,-2 34,-2 0,0 0,0 0,0zm103 -3c-52,-20 -122,-10 -176,0 -110,20 -221,70 -312,137 -2,-1 -5,1 -5,3 -9,7 -18,14 -27,21 -48,40 -91,89 -117,147 -22,50 -33,116 14,156 -1,2 0,3 2,4 63,18 125,1 183,-24 59,-25 116,-55 170,-90 54,-34 105,-73 153,-116 46,-41 95,-85 127,-138 20,-33 34,-82 -12,-100z"/>
     <path class="fil2" d="M684 763c87,-57 173,-126 239,-207 21,-26 51,-63 38,-97 -12,-32 -56,-29 -86,-30 -7,0 -15,0 -23,0 6,12 4,29 1,42 -3,19 -12,37 -27,50 -3,2 -8,1 -8,-3 3,-31 -4,-57 -15,-85 -17,2 -34,5 -50,8 9,22 12,45 9,68 -2,14 -7,46 -24,52 -3,1 -5,-1 -5,-4 -2,-38 -15,-70 -36,-101 -11,3 -22,7 -33,11 12,17 11,41 10,62 -1,29 -2,63 -21,87 -2,3 -9,2 -8,-3 0,-45 -16,-85 -45,-119 0,-1 0,-1 0,-1 -16,7 -31,14 -46,22 28,40 43,112 11,153 -2,2 -7,1 -8,-2 -12,-44 -18,-90 -53,-122 -14,9 -28,18 -41,28 18,31 30,66 30,103 -1,19 -4,65 -27,71 -2,1 -5,0 -5,-3 -8,-48 -19,-91 -50,-129 -15,13 -31,30 -46,49 36,39 40,109 19,156 -2,4 -7,3 -7,0 -9,-39 -20,-76 -49,-104 -34,59 -49,124 1,172 70,19 139,-10 201,-38 54,-25 105,-53 154,-86z"/>
    </g>
    <path class="fil2" d="M381 805c16,-44 9,-101 -21,-137 -11,14 -21,29 -30,44 31,23 42,58 51,93z"/>
    <path class="fil2" d="M414 611c31,27 44,69 51,109 5,27 11,2 15,-12 4,-16 5,-32 4,-48 -2,-30 -13,-58 -28,-84 -13,10 -25,20 -37,31l-5 4z"/>
    <path class="fil2" d="M508 541c36,28 45,71 56,113 24,-40 1,-97 -17,-135 -13,7 -26,14 -39,22z"/>
    <path class="fil2" d="M604 491c29,30 45,66 49,107 9,-18 10,-39 12,-59 1,-21 5,-51 -9,-69 -17,6 -35,13 -52,21z"/>
    <path class="fil2" d="M701 455c25,24 38,59 40,93 9,-11 12,-40 13,-51 1,-19 -2,-36 -8,-54 -14,3 -27,7 -41,10l-4 2z"/>
    <path class="fil2" d="M808 432c14,22 20,48 20,74 7,-9 12,-18 15,-30 3,-11 8,-36 -1,-46 0,0 0,0 0,0 -11,0 -23,1 -34,2z"/>
   </g>
  </g>
 </g>
</svg>
