<?xml version="1.0" encoding="UTF-8"?>
<!DOCTYPE svg PUBLIC "-//W3C//DTD SVG 1.1//EN" "http://www.w3.org/Graphics/SVG/1.1/DTD/svg11.dtd">
<!-- Creator: CorelDRAW X7 -->
<svg xmlns="http://www.w3.org/2000/svg" xml:space="preserve" width="1074px" height="1024px" version="1.1" style="shape-rendering:geometricPrecision; text-rendering:geometricPrecision; image-rendering:optimizeQuality; fill-rule:evenodd; clip-rule:evenodd"
viewBox="0 0 1074 1024"
 xmlns:xlink="http://www.w3.org/1999/xlink">
 <defs>
  <style type="text/css">
   <![CDATA[
    .fil0 {fill:none}
    .fil1 {fill:#434546;fill-rule:nonzero}
   ]]>
  </style>
 </defs>
 <g id="Layer_x0020_1">
  <metadata id="CorelCorpID_0Corel-Layer"/>
  <rect class="fil0" width="1074" height="1024"/>
  <g id="_520572464">
   <path class="fil1" d="M930 723c-9,9 -21,15 -34,16 -16,6 -34,10 -51,15 0,-36 -42,-62 -74,-42 -14,9 -24,25 -25,42 0,5 1,9 1,14 0,2 0,3 1,4 -1,0 -2,1 -3,1 -15,8 -42,8 -61,11 -8,-38 -54,-63 -91,-55 -39,9 -63,46 -60,83 0,0 0,0 -1,0 -120,22 -241,52 -359,84 -1,0 -1,0 -1,1 2,-1 3,-3 4,-7 3,-37 2,-77 -2,-116 17,7 38,3 53,-5 20,-11 32,-32 32,-56 0,-22 -11,-45 -29,-58 -10,-7 -23,-12 -36,-12 -7,0 -13,1 -19,3 -4,2 -9,5 -14,8 2,-44 1,-89 -2,-132 119,-2 243,-42 356,-75 129,-37 257,-74 391,-92 10,-2 11,-18 0,-17 -126,9 -247,47 -366,83 -61,18 -122,35 -183,50 -65,15 -133,22 -197,39 179,-135 351,-284 520,-431 12,15 30,27 44,39 15,13 30,32 48,43 -21,11 -26,40 -12,59 14,20 52,28 70,8 36,34 65,73 86,117 0,0 0,1 0,1 2,80 7,159 14,238 3,33 15,75 12,108 8,15 4,26 -12,31zm-123 8c-8,-4 -17,-6 -25,-6 6,-3 13,-5 22,-3 13,3 21,14 25,26 -6,-8 -14,-14 -22,-17zm-235 27c8,-7 19,-11 31,-12 28,-2 47,14 61,36 -24,-21 -61,-28 -92,-24zm-403 -95c11,-3 21,-7 34,-4 21,6 35,24 39,45 3,19 -4,38 -21,49 -4,2 -8,3 -11,4 15,-36 -13,-70 -41,-94zm613 -496c1,0 1,0 2,-1 2,18 2,36 2,54 -4,-2 -7,-4 -11,-8 -12,-13 -7,-36 7,-45zm175 503c-13,-108 -21,-215 -25,-324 0,-1 0,-1 -1,-2 1,-1 1,-3 0,-4 -22,-50 -55,-91 -98,-123 -2,-1 -4,-2 -6,-2 -10,3 -21,7 -31,7 2,-21 -2,-42 -7,-62 -1,-3 -4,-2 -5,-1 0,-1 0,-2 -1,-4 -9,-20 -33,-37 -50,-51 -14,-11 -30,-26 -47,-33 -1,-5 -8,-10 -13,-5 -177,142 -357,287 -524,442 0,0 -1,0 -1,1 0,1 -1,2 -1,3 0,0 0,1 0,2 -3,1 -3,6 0,7 -3,47 -4,94 -2,141 1,8 10,9 14,5 27,23 56,53 37,91 0,1 0,1 0,2 -8,0 -16,-2 -24,-3 -2,-3 -5,-3 -7,-1 -4,2 -6,6 -3,10 1,1 1,1 1,1 -4,41 -6,83 -2,123 1,6 6,9 10,7 -3,3 -1,9 4,8 121,-20 244,-44 361,-79 3,-1 4,-2 5,-4 2,-1 3,-3 3,-5 0,-18 7,-37 19,-51 18,0 36,2 53,7 20,6 35,19 53,28 3,2 7,-1 8,-4 0,0 1,1 2,1 23,-2 52,-1 74,-8 6,-2 10,-1 13,-7 5,-8 -2,-17 -2,-25 0,-8 2,-15 6,-22 11,-1 22,1 32,7 11,6 15,16 24,24 2,2 5,2 8,0 1,1 3,2 5,1 26,-6 101,-8 118,-32 13,-18 2,-47 0,-66z"/>
   <path class="fil1" d="M431 706c-3,12 -11,25 -21,33 8,-14 4,-39 -4,-50 -13,-18 -44,-24 -53,1 0,2 3,3 4,1 14,-24 41,-1 44,17 1,7 0,14 -2,20 -2,5 -6,9 -8,15 0,2 0,4 1,5 -5,1 -11,1 -17,0 -24,-6 -31,-34 -24,-55 6,-16 19,-28 33,-38 1,1 2,2 3,2 26,3 49,19 44,49zm16 -14c-3,-26 -27,-51 -54,-47 0,-1 -1,-1 -3,-1 -30,9 -58,35 -57,69 1,30 25,56 56,52 34,-5 61,-39 58,-73z"/>
   <path class="fil1" d="M683 555c1,-6 1,-11 1,-16 -2,-12 -7,-25 -18,-32 -15,-10 -36,-8 -47,5 4,-9 10,-16 17,-21 20,0 38,4 48,22 9,14 7,30 -1,42zm-67 3c-5,-10 -5,-22 -3,-33 2,1 5,1 6,-1 9,-13 31,-14 42,-3 6,6 9,15 9,24 0,9 -4,16 -5,24 -1,1 0,1 0,2 -17,7 -40,5 -49,-13zm86 -41c-9,-26 -41,-47 -68,-37 -2,1 -3,3 -3,5 -25,12 -38,48 -29,73 9,27 42,37 66,26 27,-10 43,-40 34,-67z"/>
   <path class="fil1" d="M762 620c-27,8 -34,-19 -28,-39 0,0 1,0 1,0 10,-8 26,-3 32,7 3,5 5,10 5,16 0,3 0,7 0,11 -3,2 -6,4 -10,5zm-5 -57c1,0 1,0 2,0 12,2 22,10 24,23 0,2 0,4 0,6 -3,-7 -7,-14 -11,-18 -10,-8 -23,-9 -33,-4 4,-6 11,-10 18,-7zm-1 -8c-20,-8 -35,18 -37,36 -3,24 13,44 38,44 23,-1 41,-24 40,-46 -1,-19 -20,-43 -41,-34z"/>
   <path class="fil1" d="M873 433c-1,-8 -5,-15 -11,-20 -6,-4 -14,-6 -21,-5 2,-2 4,-4 7,-5 0,0 0,0 1,0 10,2 21,6 25,17 1,4 1,9 -1,13zm-40 -4c0,-3 0,-5 1,-7 1,0 2,-1 2,-2 -1,-6 11,-3 13,-2 5,2 9,6 12,10 3,7 1,12 -1,18 -1,1 -2,1 -3,1 -11,2 -23,-7 -24,-18zm55 -7c-3,-15 -18,-29 -33,-27 -1,-1 -2,-2 -4,-2 -18,4 -32,20 -29,39 2,18 20,30 37,28 18,-2 31,-20 29,-38z"/>
   <path class="fil1" d="M700 330c1,-8 -2,-17 -6,-24 -5,-11 -12,-23 -23,-29 -8,-3 -16,-3 -22,0 14,-14 33,-18 49,-1 14,15 17,39 2,54zm-56 0c-5,-5 -7,-11 -8,-18 1,0 2,0 2,-2 -1,-9 4,-18 12,-22 10,-5 19,0 25,8 5,6 9,13 11,20 2,4 4,9 2,13 0,3 -2,4 -2,7 0,1 0,2 0,2 -14,6 -32,4 -42,-8zm60 -69c-18,-15 -61,-16 -67,12 -16,18 -18,46 -3,65 19,24 57,22 78,1 21,-22 15,-59 -8,-78z"/>
   <path class="fil1" d="M528 284c-2,-4 -2,-9 -2,-14 0,2 3,3 4,2 5,-7 15,-4 19,2 3,3 4,8 5,13 0,3 0,6 1,10 -10,5 -22,-3 -27,-13zm3 -34c9,4 18,2 26,11 6,6 9,16 7,24 -1,-2 -1,-4 -2,-6 -2,-6 -5,-12 -10,-15 -8,-5 -21,-5 -26,4 1,-6 3,-12 5,-18zm41 11c-6,-11 -24,-25 -38,-21 -2,-1 -4,-1 -5,1 -12,15 -19,37 -7,54 9,13 28,20 42,9 13,-9 15,-29 8,-43z"/>
   <path class="fil1" d="M404 396c-3,-10 -1,-37 15,-34 1,0 2,0 2,-1 10,3 19,6 23,16 1,1 1,3 2,4 -3,-4 -7,-8 -12,-10 -14,-6 -31,3 -30,19 0,3 5,3 5,0 1,-17 22,-13 29,-3 3,5 4,10 4,15 -1,2 -3,4 -5,6 -13,11 -28,2 -33,-12zm54 -13c-3,-18 -23,-36 -42,-29 0,1 -1,1 -1,2 -14,-3 -23,17 -23,30 -1,20 13,42 36,39 6,-1 12,-3 17,-7 1,2 5,2 7,-1 1,-3 2,-7 2,-11 3,-7 5,-15 4,-23z"/>
   <path class="fil1" d="M492 586c1,-15 -6,-31 -19,-38 -3,-2 -6,-2 -10,-3 11,-4 23,0 29,12 4,9 4,20 0,29zm-48 10c-6,-8 -5,-18 -3,-28 0,0 0,0 0,0 4,-17 25,-17 34,-5 10,13 4,25 2,39 0,0 0,1 0,1 -11,5 -25,3 -33,-7zm55 -50c-10,-14 -33,-18 -45,-6 -20,-2 -28,41 -23,55 8,22 37,29 55,17 22,-13 28,-45 13,-66z"/>
  </g>
 </g>
</svg>
