<?xml version="1.0" encoding="UTF-8"?>
<!DOCTYPE svg PUBLIC "-//W3C//DTD SVG 1.1//EN" "http://www.w3.org/Graphics/SVG/1.1/DTD/svg11.dtd">
<!-- Creator: CorelDRAW X7 -->
<svg xmlns="http://www.w3.org/2000/svg" xml:space="preserve" width="1074px" height="1024px" version="1.1" style="shape-rendering:geometricPrecision; text-rendering:geometricPrecision; image-rendering:optimizeQuality; fill-rule:evenodd; clip-rule:evenodd"
viewBox="0 0 1074 1024"
 xmlns:xlink="http://www.w3.org/1999/xlink">
 <defs>
  <style type="text/css">
   <![CDATA[
    .fil0 {fill:none}
    .fil1 {fill:#434546;fill-rule:nonzero}
   ]]>
  </style>
 </defs>
 <g id="Layer_x0020_1">
  <metadata id="CorelCorpID_0Corel-Layer"/>
  <rect class="fil0" width="1074" height="1024"/>
  <g id="_520634656">
   <path class="fil1" d="M961 624c-27,72 -135,83 -187,32 4,-7 8,-15 11,-22 47,51 143,37 161,-34 18,-68 -50,-135 -117,-120 1,-7 2,-15 3,-22 93,-35 158,87 129,166zm-203 25c-47,85 -129,129 -226,128 -195,-3 -320,-169 -314,-354 30,33 75,41 118,49 66,13 133,19 200,19 90,0 208,-4 278,-70 -9,78 -16,157 -56,228zm-55 94c62,65 -29,93 -75,101 -42,8 -85,7 -127,6 -44,-2 -92,-1 -135,-13 -31,-8 -40,-8 -48,-43 -8,-37 4,-40 31,-55 51,34 110,56 175,58 75,4 134,-18 179,-54zm110 -10c27,28 15,72 -6,97 -24,28 -63,39 -98,48 -79,21 -162,32 -244,35 -73,3 -151,2 -220,-25 -53,-20 -140,-82 -80,-142 34,-34 93,-42 139,-44 11,11 22,21 35,30 -37,13 -73,46 -46,86 37,54 143,47 199,50 72,3 179,9 238,-42 37,-32 22,-74 -17,-92 8,-7 16,-15 24,-24 1,1 2,1 3,1 24,3 55,4 73,22zm-468 -354c56,-11 112,-20 168,-24 104,-7 206,3 304,38 0,0 0,1 0,1 -73,69 -174,77 -270,79 -56,0 -111,-3 -165,-11 -53,-8 -119,-14 -159,-53 -1,0 -1,-1 -1,-1 13,-14 106,-25 123,-29zm482 115c52,5 112,26 103,93 -9,69 -95,75 -141,38 0,0 0,0 0,0 18,-40 30,-85 38,-131zm6 -50c2,-19 3,-37 4,-55 0,-5 -3,-8 -7,-9 -1,-2 -3,-3 -5,-4 -107,-38 -219,-47 -332,-37 -51,5 -102,13 -153,23 -35,8 -104,10 -127,39 -1,2 -2,4 -1,6l2 2c-1,1 -2,2 -2,4 -3,0 -5,1 -5,4 -18,103 18,201 84,272 -78,1 -210,42 -157,140 58,106 228,108 331,105 72,-2 143,-11 213,-26 50,-11 109,-23 144,-63 24,-27 37,-68 22,-103 -16,-38 -56,-47 -93,-50 4,-6 9,-12 13,-19 66,70 201,32 220,-63 15,-79 -61,-215 -151,-166z"/>
   <path class="fil1" d="M433 317c-31,-10 -72,-12 -78,-49 -4,-27 17,-43 18,-70 2,-39 -42,-64 -72,-80 -9,-4 -18,7 -11,14 30,29 75,48 51,98 -9,17 -18,31 -10,51 14,36 67,46 100,47 7,0 8,-9 2,-11z"/>
   <path class="fil1" d="M543 58c-6,-5 -18,2 -12,10 4,6 26,37 26,38 20,38 -4,55 -31,78 -12,9 -23,14 -28,29 -13,35 27,64 51,83 7,5 13,-5 8,-11 -8,-9 -32,-31 -36,-41 -13,-40 20,-42 39,-55 12,-8 19,-17 24,-30 14,-38 -12,-77 -41,-101z"/>
   <path class="fil1" d="M778 120c-5,-9 -20,-3 -17,8 5,15 12,29 18,44 5,13 11,28 -5,36 -7,3 -20,2 -27,1 -27,-2 -52,-18 -78,-5 -32,17 -37,62 -7,82 4,3 9,-2 7,-6 -13,-21 -17,-52 14,-60 16,-4 35,6 51,9 16,2 41,4 56,-5 37,-22 2,-78 -12,-104z"/>
  </g>
 </g>
</svg>
