<?xml version="1.0" encoding="UTF-8"?>
<!DOCTYPE svg PUBLIC "-//W3C//DTD SVG 1.1//EN" "http://www.w3.org/Graphics/SVG/1.1/DTD/svg11.dtd">
<!-- Creator: CorelDRAW X7 -->
<svg xmlns="http://www.w3.org/2000/svg" xml:space="preserve" width="1074px" height="1024px" version="1.1" style="shape-rendering:geometricPrecision; text-rendering:geometricPrecision; image-rendering:optimizeQuality; fill-rule:evenodd; clip-rule:evenodd"
viewBox="0 0 1074 1024"
 xmlns:xlink="http://www.w3.org/1999/xlink">
 <defs>
  <style type="text/css">
   <![CDATA[
    .fil0 {fill:none}
    .fil1 {fill:#434546;fill-rule:nonzero}
   ]]>
  </style>
 </defs>
 <g id="Layer_x0020_1">
  <metadata id="CorelCorpID_0Corel-Layer"/>
  <rect class="fil0" width="1074" height="1024"/>
  <g id="_599843464">
   <path class="fil1" d="M668 385c-15,51 -64,85 -117,85 -70,0 -113,-48 -97,-117 12,-56 54,-89 105,-106 0,5 5,10 11,7 79,-35 114,77 98,131zm23 -53c-7,-55 -62,-128 -122,-96 -77,3 -137,67 -138,144 -2,83 69,121 147,108 73,-13 123,-83 113,-156z"/>
   <path class="fil1" d="M583 272c-34,-6 -73,16 -84,48 -1,3 4,6 6,3 14,-18 34,-33 58,-35 32,-4 44,16 48,43 1,7 9,11 13,4 14,-27 -15,-58 -41,-63z"/>
   <path class="fil1" d="M894 489c-55,31 -113,57 -144,116 -33,63 -32,138 -59,204 -42,104 -214,181 -262,38 -16,-51 -16,-109 -49,-153 -51,-67 -158,-37 -200,-116 -29,-56 -22,-134 13,-185 32,-47 86,-52 131,-79 26,-16 46,-38 63,-63 9,-16 17,-32 24,-49 3,-7 5,-18 9,-25 13,-20 63,-39 85,-24 3,2 5,2 8,0 34,23 81,10 122,-3 48,-14 97,-31 148,-30 67,1 118,39 157,91 73,97 64,215 -46,278zm-7 -357c-41,-27 -88,-35 -137,-29 -72,8 -200,87 -255,19 -2,-2 -5,-1 -6,1 -18,-9 -38,-14 -57,-3 -28,17 -35,73 -48,99 -33,63 -76,80 -137,108 -39,18 -68,44 -86,84 -28,65 -25,163 32,213 31,28 73,30 111,43 70,22 83,79 97,142 15,64 38,126 111,135 86,12 166,-50 197,-126 41,-100 26,-210 129,-275 72,-45 153,-73 169,-167 16,-93 -44,-193 -120,-244z"/>
  </g>
 </g>
</svg>
