<?xml version="1.0" encoding="UTF-8"?>
<!DOCTYPE svg PUBLIC "-//W3C//DTD SVG 1.1//EN" "http://www.w3.org/Graphics/SVG/1.1/DTD/svg11.dtd">
<!-- Creator: CorelDRAW X7 -->
<svg xmlns="http://www.w3.org/2000/svg" xml:space="preserve" width="1074px" height="1024px" version="1.1" style="shape-rendering:geometricPrecision; text-rendering:geometricPrecision; image-rendering:optimizeQuality; fill-rule:evenodd; clip-rule:evenodd"
viewBox="0 0 1074 1024"
 xmlns:xlink="http://www.w3.org/1999/xlink">
 <defs>
  <style type="text/css">
   <![CDATA[
    .fil0 {fill:none}
    .fil1 {fill:#434546;fill-rule:nonzero}
   ]]>
  </style>
 </defs>
 <g id="Layer_x0020_1">
  <metadata id="CorelCorpID_0Corel-Layer"/>
  <rect class="fil0" width="1074" height="1024"/>
  <g id="_536348528">
   <path class="fil1" d="M950 718c-67,-60 -183,-106 -178,-206 1,-2 3,-4 5,-6 1,1 3,2 6,2 117,-5 199,100 167,210zm-204 -201c-5,-8 -11,-14 -18,-20 4,-1 9,-5 12,-8 3,-4 7,-11 7,-17 5,6 10,12 15,19 1,1 1,2 1,3 1,1 1,1 1,2 -5,7 -12,14 -18,21zm-29 26c0,-3 1,-5 0,-8 -1,-5 -3,-8 -7,-11 -5,-4 -10,-7 -16,-9 8,-2 15,-7 19,-14 2,2 5,3 6,3 8,5 15,12 21,19 -8,7 -15,14 -23,20zm-41 27c-1,-8 -10,-15 -20,-19 6,-5 11,-11 12,-20 1,-3 1,-7 0,-10 11,3 24,5 34,12 6,3 5,10 6,16 -10,8 -21,15 -32,21zm-55 25c6,-11 4,-24 -2,-35 6,0 11,-1 17,-2 2,1 4,1 6,1 6,1 25,6 26,15 -15,8 -31,15 -47,21zm-8 -45c-6,-7 -12,-13 -19,-17 14,-4 27,-22 29,-34 12,7 38,13 32,33 -2,7 -7,11 -13,14 -11,-2 -22,-2 -28,2 -1,1 -1,1 -1,2zm-7 50c-12,4 -25,8 -37,11 1,-7 -1,-15 -5,-21 -5,-6 -12,-11 -19,-14 -4,-2 -7,-4 -11,-6 4,0 7,-1 10,-2 13,-4 24,-15 28,-29 0,-1 0,-2 1,-3 11,7 24,12 32,23 10,13 11,29 1,41zm-47 13c-16,4 -33,7 -49,10 1,-9 -3,-17 -10,-22 -2,-1 -3,-2 -5,-3 8,-4 14,-10 16,-20 1,-2 1,-3 1,-5 14,10 55,19 47,40zm-119 19c-1,0 -1,0 -2,0 8,-6 15,-16 16,-26 0,-1 0,-2 0,-2 8,2 16,2 25,2 9,1 25,6 23,18 -20,3 -41,6 -62,8zm-31 -1c-1,0 -2,3 0,4 0,0 0,0 0,0 -1,0 -3,0 -4,0 6,-17 -4,-33 -19,-44 11,-3 21,-10 25,-22 15,5 30,15 31,32 1,21 -16,27 -33,30zm-14 5c-20,1 -40,1 -60,1 18,-34 29,-71 35,-109 7,2 14,5 20,9 22,19 6,51 -22,41 -6,-2 -10,8 -4,11 16,9 40,24 31,47zm-137 -11c-69,-18 -145,-80 -127,-161 19,-90 107,-123 198,-130 34,104 35,199 -4,302 -22,-1 -45,-5 -67,-11zm135 -292c11,9 14,24 9,38 -5,11 -15,19 -26,25 -4,0 -7,0 -11,0 -5,-21 -12,-43 -22,-63 17,-1 34,-1 50,0zm0 -50c-1,11 0,22 2,33 -8,0 -16,0 -24,0 -1,-19 8,-29 22,-33zm24 -2c-1,11 -1,24 0,36 -5,0 -11,-1 -17,-1 0,-11 0,-23 -1,-35 6,-1 12,-1 18,0zm7 0c6,1 12,2 18,3 -1,11 -1,23 1,35 -7,-1 -13,-1 -20,-2 2,-12 2,-24 1,-36zm26 4c7,2 14,4 21,6 -1,10 0,21 1,32 -8,-1 -16,-2 -24,-3 0,-12 2,-23 2,-35zm37 58c3,0 6,1 9,1 0,1 0,2 1,2 4,5 10,8 14,13 5,7 7,16 4,24 -4,12 -16,19 -29,18 -1,0 -3,0 -5,0 -1,0 -2,-1 -4,-1 0,0 -1,0 -2,0 1,-2 1,-4 1,-6 -1,-14 -9,-25 -20,-32 1,0 2,-1 3,-1 6,-3 15,-11 19,-20 3,1 6,1 9,2zm0 -48c4,2 8,3 12,4 -1,10 0,20 1,29 -7,-1 -13,-3 -20,-4 0,-10 1,-20 0,-31 2,1 4,2 7,2zm20 8c6,2 11,4 17,7 0,8 0,15 1,23 -6,-1 -12,-3 -18,-4 0,0 0,0 0,-1 1,-8 1,-17 0,-25zm58 83c6,23 -16,42 -39,37 -1,0 -2,1 -3,2 -1,0 -3,0 -4,0 0,0 -1,0 -1,0 -3,-7 -8,-13 -15,-17 10,-3 19,-10 23,-21 3,-7 3,-19 -1,-28 16,4 35,7 40,27zm-34 -73c7,4 13,7 20,11 -1,5 -2,10 -4,15 -5,-2 -11,-3 -17,-5 1,-7 1,-14 1,-21zm23 28c2,-4 3,-8 4,-13 12,8 23,16 34,25 -12,-5 -25,-9 -38,-12zm50 41c-9,-4 -20,-6 -29,-7 -3,-5 -6,-10 -11,-14 16,5 31,11 46,17 -2,1 -4,3 -6,4zm-28 67c-1,0 -1,0 -2,1 -3,-10 -12,-17 -22,-21 15,-5 26,-18 26,-35 1,-2 0,-5 0,-7 1,0 2,0 2,1 0,0 1,0 1,0 5,3 10,4 16,4 6,3 11,6 15,12 13,20 -14,50 -36,45zm45 -66c17,7 33,16 48,25 0,0 -1,1 -1,2 -3,3 -6,6 -10,8 -4,2 -8,4 -12,4 -6,-2 -12,-3 -17,-3 0,-1 0,-2 0,-3 0,-12 -6,-22 -14,-28 2,-1 5,-3 6,-5zm59 32c8,5 15,10 22,15 -1,2 -1,4 0,6 3,4 4,8 0,12 -5,6 -15,6 -22,6 0,0 -1,0 -1,0 -2,-10 -9,-19 -18,-25 0,0 1,0 1,0 7,-3 15,-8 18,-14zm-2 53c11,4 27,10 27,21 -1,16 -20,19 -32,20 -1,0 -2,0 -2,-1 -3,0 -5,1 -7,3 -3,-6 -9,-11 -15,-14 14,-5 25,-15 29,-29zm-79 -12c11,-5 21,-15 26,-26 16,6 47,14 41,35 -4,13 -15,22 -28,26 -4,-1 -8,-2 -12,-3 -1,0 -2,0 -3,1 -2,-13 -12,-27 -24,-33zm-49 39c14,-6 25,-17 26,-33 0,0 1,1 2,2 7,3 15,3 22,9 7,6 11,15 10,25 -1,9 -7,17 -14,21 -6,4 -12,4 -18,7 -1,0 -2,-1 -3,-1 -1,0 -2,0 -2,0 -2,-13 -11,-25 -23,-30zm-80 41c18,6 39,24 27,45 -3,7 -10,11 -17,13 -9,-2 -18,-1 -26,-1 0,0 0,0 -1,0 -2,-11 -9,-20 -18,-26 17,-2 32,-12 35,-31zm-50 -30c0,-1 0,-2 1,-3 13,7 33,5 37,23 6,23 -17,34 -36,33 -3,-1 -6,-2 -9,-2l0 0c0,-12 -6,-21 -15,-28 10,-2 19,-10 22,-23zm-46 -37c0,0 1,1 2,1 7,2 18,4 23,11 10,5 7,13 -7,23 -1,10 -4,16 -7,18 -5,-2 -9,-3 -14,-4 2,-16 3,-33 3,-49zm22 -53c13,18 6,44 -18,42 -2,0 -4,0 -5,1 0,-17 -2,-34 -6,-51 1,0 2,0 2,0 10,-1 21,0 27,8zm82 43c-1,0 -1,0 -2,0 -2,1 -3,1 -4,1 0,-1 0,-2 0,-3 -2,-13 -10,-23 -21,-29 11,-3 19,-10 23,-20 12,8 30,8 34,25 6,20 -15,24 -30,26zm-46 34c-4,-1 -8,-1 -11,0 -3,-12 -12,-21 -23,-27 11,-6 19,-17 18,-31 1,0 3,1 4,0 17,-4 37,5 40,24 3,17 -12,31 -28,34zm39 -24c9,2 18,2 26,6 9,5 16,13 17,24 1,19 -18,27 -34,28 -3,-1 -5,-2 -8,-2 0,-1 -1,-1 -2,-1 -2,-11 -12,-21 -23,-27 12,-5 21,-15 24,-28zm50 -35c16,3 39,5 42,24 3,22 -20,32 -36,37 -1,0 -1,0 -1,0 -2,-13 -11,-25 -24,-31 11,-5 19,-14 19,-26 0,-1 0,-2 0,-4zm-110 -100c19,1 37,3 53,5 -2,5 -6,9 -10,12 -4,2 -8,4 -12,5 -8,-3 -17,-4 -25,-4 0,-6 -2,-13 -6,-18zm6 30c0,0 0,-1 0,-1 18,4 38,6 45,26 6,19 -8,30 -24,34 -7,-1 -15,-1 -22,2 0,1 -1,1 -1,1 -3,-13 -12,-22 -24,-27 13,-7 23,-19 26,-35zm94 194c0,0 0,1 0,1 -3,-10 -10,-19 -19,-25 16,-2 30,-11 34,-28 1,1 2,1 4,1 19,-4 34,11 29,30 -2,9 -8,15 -16,20 -5,2 -10,3 -16,4 -3,0 -7,-1 -10,1 0,0 0,0 0,0 0,0 0,0 0,0 1,-3 -3,-6 -6,-4zm203 -105c1,-3 3,-6 3,-10 7,6 14,13 21,19 -1,1 -2,2 -2,3 -1,2 -1,5 -1,8 0,3 -2,6 -3,9 -4,5 -9,7 -15,9 0,0 0,0 0,0 0,0 0,0 -1,0 2,-14 -7,-22 -19,-28 6,-1 12,-4 17,-10zm108 -127c29,-28 68,-41 100,-64 1,92 -30,200 -124,229 -5,0 -10,0 -15,0 -3,0 -5,2 -7,4 0,0 0,0 0,0 1,-2 1,-3 1,-5 -9,-60 0,-119 45,-164zm14 169c80,-38 106,-169 102,-248 0,-8 -8,-11 -13,-6 -49,40 -107,51 -142,107 -21,35 -32,78 -26,118 -35,-45 -80,-77 -131,-100 0,-1 -1,-3 -2,-4 -20,-19 -41,-35 -64,-49 -1,-1 -2,-2 -4,-2 -8,-5 -17,-9 -26,-13 0,-2 -2,-3 -4,-2 -9,-4 -19,-8 -29,-11 -37,-12 -98,-27 -136,-12 -3,1 -4,3 -5,6 -1,12 3,25 6,37 -110,4 -240,40 -250,159 -12,145 164,183 274,178 127,-5 279,-27 371,-124 -7,93 137,157 190,211 5,5 13,2 15,-4 40,-107 -23,-217 -126,-241z"/>
   <path class="fil1" d="M278 436c-1,-6 1,-12 1,-18 1,-8 -9,-9 -12,-4 -9,12 -11,39 2,48 7,4 14,-2 14,-8 1,-6 -4,-12 -5,-18z"/>
  </g>
 </g>
</svg>
