<?xml version="1.0" encoding="UTF-8"?>
<!DOCTYPE svg PUBLIC "-//W3C//DTD SVG 1.1//EN" "http://www.w3.org/Graphics/SVG/1.1/DTD/svg11.dtd">
<!-- Creator: CorelDRAW X7 -->
<svg xmlns="http://www.w3.org/2000/svg" xml:space="preserve" width="1074px" height="1024px" version="1.1" style="shape-rendering:geometricPrecision; text-rendering:geometricPrecision; image-rendering:optimizeQuality; fill-rule:evenodd; clip-rule:evenodd"
viewBox="0 0 1074 1024"
 xmlns:xlink="http://www.w3.org/1999/xlink">
 <defs>
  <style type="text/css">
   <![CDATA[
    .fil0 {fill:none}
    .fil1 {fill:#434546;fill-rule:nonzero}
   ]]>
  </style>
 </defs>
 <g id="Layer_x0020_1">
  <metadata id="CorelCorpID_0Corel-Layer"/>
  <rect class="fil0" width="1074" height="1024"/>
  <path class="fil1" d="M793 642c-1,35 2,71 -18,101 -22,32 -53,31 -89,29 -1,0 -1,1 -2,1 0,-10 -1,-21 -1,-31 24,1 50,8 66,-14 17,-25 9,-72 10,-99 1,-66 11,-129 -74,-126 -1,0 -2,1 -3,1 0,-11 0,-21 0,-32 15,-3 37,-9 50,-6 37,11 59,45 61,80 2,31 1,64 0,96zm-55 67c-9,20 -36,19 -55,20 -1,-35 -2,-71 -3,-107 0,-34 1,-68 1,-102 2,1 3,1 4,1 75,-3 56,81 56,126 -1,17 4,46 -3,62zm-222 203c-43,1 -122,1 -155,-32 0,-1 1,-1 1,-2 -1,-85 -3,-170 -4,-256 -1,-78 1,-157 -6,-235 32,25 97,32 129,34 63,4 126,-9 182,-37 -8,75 -5,152 -4,228 1,86 1,174 7,261 -47,23 -97,37 -150,39zm31 -581c-3,27 -4,51 -5,67 -65,9 -133,0 -189,-33 65,-15 128,-26 194,-34zm82 -108c39,30 -24,123 -33,164 -14,4 -28,7 -43,10 5,-51 19,-196 76,-174zm29 36c7,38 -17,83 -33,118 -3,2 -7,3 -11,4 14,-29 41,-82 44,-122zm-2 104c1,0 1,0 1,1 -4,2 -9,4 -14,6 2,-4 5,-8 7,-13 2,2 4,3 6,6zm159 246c1,-47 9,-118 -35,-150 -30,-21 -67,-13 -98,1 0,-32 -1,-63 -4,-94 -1,-1 -1,-2 -2,-3 -1,-9 -12,-15 -21,-18 22,-48 34,-109 -19,-134 0,0 -1,0 -2,0 -54,-24 -76,41 -85,104 -70,-4 -148,12 -211,42 -3,2 -3,5 -2,7 0,2 0,4 1,5 0,1 0,1 1,2 -8,83 -3,168 -2,251 2,86 3,171 6,256 0,5 3,8 6,9 20,41 91,45 132,47 69,4 137,-12 199,-43 4,-1 6,-4 6,-8 1,-1 1,-2 1,-5 0,-29 -1,-58 -1,-87 0,0 1,0 1,0 37,3 83,3 108,-29 29,-39 20,-108 21,-153z"/>
  <path class="fil1" d="M437 283c-26,3 -60,-21 -57,-48 1,-12 7,-22 4,-34 -2,-9 -8,-17 -15,-22 -4,-4 -43,-22 -43,-22 2,-7 -6,-13 -12,-9 -1,0 -2,1 -3,2 -3,2 -5,6 -4,10 5,16 20,19 35,25 10,5 22,13 24,26 1,5 -3,13 -4,19 -1,8 -2,15 0,23 7,28 51,52 77,38 4,-2 2,-9 -2,-8z"/>
  <path class="fil1" d="M502 162c-3,-7 -10,-14 -12,-21 -11,-37 0,-18 7,-37 7,-18 10,-31 3,-50 -3,-10 -17,-6 -15,4 9,42 -26,40 -23,71 3,41 52,15 10,86 -5,8 -13,10 -14,21 0,16 18,30 28,38 5,5 12,-2 7,-7 -30,-33 0,-37 11,-65 5,-13 3,-28 -2,-40z"/>
  <path class="fil1" d="M688 62c-4,-6 -13,-2 -13,4 -3,42 -33,16 -47,36 -4,7 -1,13 0,19 3,22 -9,35 -31,35 -14,0 -30,-3 -40,9 -7,10 -5,21 4,28 5,5 12,-2 7,-7 -15,-18 18,-14 21,-14 6,0 13,2 19,1 8,0 15,-3 21,-8 12,-8 19,-23 19,-37 -1,-11 -3,-13 9,-16 8,-3 15,-3 22,-9 12,-11 16,-27 9,-41z"/>
 </g>
</svg>
