<?xml version="1.0" encoding="UTF-8"?>
<!DOCTYPE svg PUBLIC "-//W3C//DTD SVG 1.1//EN" "http://www.w3.org/Graphics/SVG/1.1/DTD/svg11.dtd">
<!-- Creator: CorelDRAW X7 -->
<svg xmlns="http://www.w3.org/2000/svg" xml:space="preserve" width="1074px" height="1024px" version="1.1" style="shape-rendering:geometricPrecision; text-rendering:geometricPrecision; image-rendering:optimizeQuality; fill-rule:evenodd; clip-rule:evenodd"
viewBox="0 0 1074 1024"
 xmlns:xlink="http://www.w3.org/1999/xlink">
 <defs>
  <style type="text/css">
   <![CDATA[
    .fil0 {fill:none}
    .fil1 {fill:#434546;fill-rule:nonzero}
   ]]>
  </style>
 </defs>
 <g id="Layer_x0020_1">
  <metadata id="CorelCorpID_0Corel-Layer"/>
  <rect class="fil0" width="1074" height="1024"/>
  <path class="fil1" d="M805 208c-9,-8 -24,-3 -34,-2 -22,1 -43,4 -65,6 -5,1 -8,6 -4,10 25,24 51,50 78,72 4,3 9,-2 5,-5 -20,-24 -44,-45 -67,-67 20,-2 40,-4 60,-6 4,0 12,-3 15,-1 7,3 8,14 9,20 1,17 -2,32 -9,48 -3,6 6,12 9,5 7,-13 11,-28 11,-44 0,-10 0,-29 -8,-36z"/>
  <path class="fil1" d="M770 169c-22,7 -44,15 -66,22 0,-8 1,-17 2,-25 1,-7 3,-25 11,-27 6,-1 19,8 24,11 9,5 16,12 25,18 4,4 12,-1 8,-6 -8,-10 -19,-19 -31,-25 -8,-5 -22,-13 -31,-11 -11,2 -13,15 -15,23 -4,17 -6,34 -6,51 0,4 4,7 8,6 25,-8 50,-17 74,-29 4,-2 1,-9 -3,-8z"/>
  <path class="fil1" d="M639 204c-2,0 -15,-2 -15,-4 -1,-2 2,-5 4,-7 9,-14 22,-25 36,-33 2,15 6,31 9,47 0,0 0,0 0,0 -11,-1 -22,-1 -34,-3zm34 -55c0,-4 -5,-5 -8,-4 -12,7 -24,15 -33,25 -7,7 -19,18 -21,28 -2,10 7,13 14,15 15,4 32,6 48,5 3,-1 5,-3 5,-5 2,0 3,-1 3,-3 -2,-21 -4,-41 -8,-61z"/>
  <path class="fil1" d="M685 383c0,-1 0,0 0,-1 0,-5 1,-9 1,-14 61,23 133,-23 156,-81 27,-69 -30,-148 -93,-174 -61,-25 -147,16 -169,78 -9,26 -5,58 6,88 -5,1 -11,2 -17,3 -7,-24 -9,-50 -2,-78 17,-74 89,-128 165,-113 79,16 132,96 130,174 -3,92 -90,156 -177,118zm3 -50c2,-31 3,-61 4,-92 14,16 29,32 43,48 10,12 23,26 3,39 -13,8 -31,6 -45,3 -2,0 -4,1 -5,2zm-6 -100c0,1 0,2 0,3 -1,-1 -2,-1 -3,0 0,-4 -4,-5 -8,-5 0,0 0,0 -1,0 -13,1 -27,3 -41,5 -7,1 -18,0 -20,9 -2,8 4,19 8,25 -6,3 -12,4 -18,6 -11,-24 -16,-51 -9,-74 15,-60 100,-99 154,-77 44,18 93,74 92,124 0,68 -84,130 -149,104 0,-4 0,-9 1,-13 0,1 1,1 3,2 20,7 70,2 71,-28 0,-14 -15,-26 -23,-35 -14,-16 -29,-31 -46,-43 -1,0 -1,0 -1,0 0,-1 0,-1 0,-2 0,-5 -9,-7 -10,-1zm-33 41c-2,4 -4,8 -6,12 -2,-2 -4,-4 -6,-7 4,-1 8,-3 12,-5zm-21 -8c-3,-6 -8,-15 -7,-17 3,-3 19,-4 23,-5 7,-2 14,-3 21,-5 -1,3 -2,6 -4,9 -10,7 -21,13 -33,18zm39 84c-24,-11 -46,-33 -61,-59 7,-2 13,-5 20,-7 4,6 9,12 13,17 3,3 8,2 10,-1 7,-12 13,-25 19,-38 4,-2 7,-4 10,-7 -4,31 -8,63 -11,95zm-3 28c-40,-16 -72,-45 -89,-81 6,-1 12,-2 18,-3 16,31 42,56 73,63 -1,7 -2,14 -2,21zm-16 168c-12,111 -25,222 -38,333 -90,63 -179,35 -278,10 -7,-114 -15,-228 -23,-341 -7,-103 -9,-207 -24,-308 71,41 178,69 272,60 17,46 53,85 106,86 -5,53 -9,107 -15,160zm-103 -322c1,0 1,0 1,0 -1,20 1,40 6,60 -88,7 -185,-23 -260,-53 85,-10 167,-14 253,-7zm206 -147c-89,-26 -180,34 -201,122 -1,4 -2,7 -2,11 -1,0 -1,0 -1,0 -87,-13 -179,-11 -264,12 -2,-3 -8,-2 -9,2 -4,-1 -6,5 -2,7 0,0 1,1 2,2 -2,108 11,217 18,325 8,112 15,223 23,334 0,7 7,10 13,8 91,45 215,62 297,-11 3,-3 2,-6 1,-9 19,-159 44,-321 58,-482 75,39 165,-10 188,-89 27,-91 -27,-204 -121,-232z"/>
  <path class="fil1" d="M615 636c-6,74 -22,150 -19,224 0,0 0,0 0,1 -2,-2 -5,-3 -8,-2 -74,40 -152,38 -229,9l0 0c-9,-158 -18,-319 -34,-477 20,42 92,58 130,62 54,6 133,11 178,-27 -6,70 -12,140 -18,210zm15 -222c-42,34 -105,31 -156,27 -55,-3 -112,-19 -149,-63 104,1 208,-6 305,36zm11 -8c0,-2 -1,-3 -3,-4 -94,-42 -214,-52 -315,-31 -1,0 -2,2 -2,3 -1,0 -3,1 -3,3 -4,162 10,331 32,492 0,2 2,4 4,4 0,0 0,0 0,0 76,41 166,36 241,-3 3,-2 3,-5 2,-8 1,1 3,1 4,-1 17,-70 16,-144 23,-215 8,-78 14,-157 21,-235 0,-3 -2,-5 -4,-5z"/>
  <path class="fil1" d="M562 823c-4,5 -26,10 -32,13 -8,3 -18,9 -26,6 -10,-2 -11,-11 -15,-20 -7,-14 -14,-28 -21,-42 22,-10 45,-18 69,-25 5,14 11,27 17,40 2,5 12,22 8,28zm6 -36c-7,-15 -14,-30 -20,-45 -1,-3 -6,-5 -9,-4 -28,8 -54,17 -80,29 -6,3 -5,9 -1,12 5,15 11,30 17,44 4,9 8,24 15,32 14,13 42,-4 56,-9 15,-6 35,-9 34,-28 0,-10 -9,-22 -12,-31z"/>
  <path class="fil1" d="M409 783c0,-2 -1,-3 -3,-4 -9,-6 -20,-11 -27,-19 -8,-10 -6,-14 -1,-26 6,-16 13,-33 19,-49 19,9 39,19 58,29 -16,23 -31,45 -46,69zm61 -78c-24,-14 -48,-26 -73,-38 -5,-2 -10,0 -12,5 -6,15 -12,31 -18,47 -3,10 -12,23 -10,34 2,17 29,32 42,38 2,1 5,1 6,0 1,2 5,5 7,2 21,-25 41,-52 60,-78 3,-3 1,-8 -2,-10z"/>
  <path class="fil1" d="M542 696c-8,1 -19,5 -27,3 -10,-3 -11,-9 -17,-18 -8,-13 -16,-27 -24,-40 26,-11 51,-21 78,-29 4,14 8,27 11,41 2,7 7,18 6,25 -2,19 -13,16 -27,18zm22 -95c-2,-4 -5,-7 -9,-5 -31,8 -61,19 -89,32 -6,3 -5,10 -1,13 7,13 13,25 20,38 4,9 8,24 16,31 12,12 42,1 57,-1 17,-3 29,-6 27,-25 -2,-28 -12,-57 -21,-83z"/>
 </g>
</svg>
