<?xml version="1.0" encoding="UTF-8"?>
<!DOCTYPE svg PUBLIC "-//W3C//DTD SVG 1.1//EN" "http://www.w3.org/Graphics/SVG/1.1/DTD/svg11.dtd">
<!-- Creator: CorelDRAW X7 -->
<svg xmlns="http://www.w3.org/2000/svg" xml:space="preserve" width="1074px" height="1024px" version="1.1" style="shape-rendering:geometricPrecision; text-rendering:geometricPrecision; image-rendering:optimizeQuality; fill-rule:evenodd; clip-rule:evenodd"
viewBox="0 0 1074 1024"
 xmlns:xlink="http://www.w3.org/1999/xlink">
 <defs>
  <style type="text/css">
   <![CDATA[
    .fil0 {fill:none}
    .fil1 {fill:#434546;fill-rule:nonzero}
   ]]>
  </style>
 </defs>
 <g id="Layer_x0020_1">
  <metadata id="CorelCorpID_0Corel-Layer"/>
  <rect class="fil0" width="1074" height="1024"/>
  <g id="_536347952">
   <path class="fil1" d="M967 600c-7,-1 -12,8 -5,12 2,1 3,2 5,3 22,29 37,82 -9,98 -47,16 -72,-42 -55,-78 2,-4 -1,-9 -4,-10 -1,-1 -2,-2 -3,-2 -34,-9 -70,-16 -105,-21 0,-1 0,-1 0,-1 8,-9 11,-20 12,-32 32,9 65,17 98,25 4,1 7,-1 8,-4 2,-1 5,-3 4,-6 -14,-45 22,-95 72,-75 17,7 31,22 35,39 8,31 -23,57 -53,52zm-188 -8c-3,2 -3,5 -2,7 -49,57 -133,76 -202,94 -79,20 -163,38 -244,36 -47,-1 -87,-13 -119,-34 13,1 26,0 39,-5 61,-24 86,-121 104,-176 26,-79 44,-168 39,-252 -2,-37 -14,-89 -47,-112 66,6 129,37 183,74 62,41 116,94 161,154 19,27 37,55 53,84 13,25 62,103 35,130zm-615 61c-1,-2 -2,-3 -3,-4 -4,-6 -8,-12 -12,-18 0,-1 -1,-2 -2,-2 -54,-82 -62,-202 -32,-302 25,-85 78,-158 170,-174 8,-1 16,-2 24,-3 0,1 1,1 2,2 111,32 64,230 43,310 -12,50 -30,99 -52,146 -11,22 -24,50 -46,64 -34,20 -69,7 -92,-19zm842 -150c-53,-38 -132,16 -105,77 -32,-9 -66,-16 -99,-20 -3,-32 -26,-70 -37,-93 -33,-67 -78,-128 -131,-180 -96,-95 -240,-186 -380,-142 -143,44 -184,226 -169,357 18,149 117,248 269,243 95,-4 192,-25 282,-53 54,-17 118,-36 150,-83 33,9 67,18 101,25 -21,46 15,109 70,97 56,-13 56,-78 25,-114 22,-2 44,-19 53,-36 12,-28 -6,-62 -29,-78z"/>
   <path class="fil1" d="M289 418c-11,29 -57,104 -81,43 -20,-51 10,-125 52,-159 0,0 1,1 2,1 60,-2 39,81 27,115zm-17 -128c-1,-1 -2,-1 -2,-1 -1,0 -1,1 -2,1 -2,0 -5,0 -7,1 -2,0 -4,1 -4,3 -42,18 -57,65 -64,109 -3,27 -8,108 42,98 70,-14 126,-213 37,-211z"/>
   <path class="fil1" d="M230 452c-17,-11 0,-61 4,-73 7,-21 16,-43 36,-53 1,0 1,0 1,0 34,0 -12,138 -41,126zm41 -137c-3,0 -5,2 -5,5 -32,8 -43,54 -49,82 -3,14 -12,70 18,58 21,5 43,-47 48,-61 8,-21 29,-84 -12,-84z"/>
  </g>
 </g>
</svg>
