<?xml version="1.0" encoding="UTF-8"?>
<!DOCTYPE svg PUBLIC "-//W3C//DTD SVG 1.1//EN" "http://www.w3.org/Graphics/SVG/1.1/DTD/svg11.dtd">
<!-- Creator: CorelDRAW X7 -->
<svg xmlns="http://www.w3.org/2000/svg" xml:space="preserve" width="1074px" height="1024px" version="1.1" style="shape-rendering:geometricPrecision; text-rendering:geometricPrecision; image-rendering:optimizeQuality; fill-rule:evenodd; clip-rule:evenodd"
viewBox="0 0 1074 1024"
 xmlns:xlink="http://www.w3.org/1999/xlink">
 <defs>
  <style type="text/css">
   <![CDATA[
    .fil0 {fill:none}
    .fil1 {fill:#434546;fill-rule:nonzero}
   ]]>
  </style>
 </defs>
 <g id="Layer_x0020_1">
  <metadata id="CorelCorpID_0Corel-Layer"/>
  <rect class="fil0" width="1074" height="1024"/>
  <path class="fil1" d="M753 577c-1,0 -1,0 -1,0 -19,-3 -32,3 -37,23 -3,11 -1,21 2,31 4,20 7,20 0,42 -11,34 -6,10 -18,27 -21,29 -13,89 29,96 -18,31 -34,64 -50,97 7,-189 -1,-379 -12,-567 26,-26 50,-53 73,-81 4,84 11,168 13,253 1,26 1,53 1,79zm-1 179c-7,11 -13,21 -20,32 0,0 0,0 0,0 -9,-3 -20,-17 -25,-26 -14,-22 -6,-38 11,-57 9,-9 12,-4 19,-18 10,-21 -23,-98 13,-99 1,0 2,0 2,0 0,56 -1,112 0,168zm-228 153c18,-20 24,-49 12,-75 -5,-11 -13,-20 -23,-27 -19,-14 -45,-13 -64,-27 0,0 0,0 0,-1 -18,-10 10,-73 9,-94 -3,-25 -19,-48 -42,-59 -41,-18 -79,1 -100,34 0,-13 0,-26 0,-39 -1,-97 5,-195 0,-292 1,1 1,1 2,1 50,11 102,14 154,14 -5,40 34,53 68,55 33,3 50,16 62,46 4,11 8,22 15,31 11,15 25,22 41,19 4,137 5,275 9,412 -48,2 -95,2 -143,2zm-19 -2c-1,1 -2,2 -2,3 -61,0 -121,1 -182,4 -2,-79 -4,-157 -5,-236 17,-29 47,-50 81,-43 44,10 50,51 41,87 -5,18 -23,61 5,67 9,9 21,13 34,18 24,8 44,19 49,45 4,22 -5,40 -21,55zm153 -424c-44,-7 -41,-68 -74,-89 -37,-23 -94,9 -103,-50 57,-1 115,-7 171,-11 3,50 4,100 6,150zm-3 -166c-62,4 -122,6 -183,7 11,-10 41,-16 52,-18 3,0 7,0 11,0 11,-2 21,-4 29,-12 8,-8 10,-19 16,-27 19,-30 54,-25 81,-9 -2,20 -4,39 -6,59zm-317 -64c3,3 8,4 13,4 25,-1 27,-31 56,-29 12,2 23,8 34,-3 6,-7 8,-17 7,-27 74,0 149,-5 222,-11 0,0 0,0 0,0 -3,20 -5,39 -8,59 -30,-22 -76,-24 -96,13 -12,22 -22,31 -49,32 -11,0 -23,-1 -34,3 -15,6 -23,15 -25,30 -46,0 -92,-2 -139,-4 0,0 0,0 0,0 8,-22 14,-44 19,-67zm10 -56c0,-1 0,-1 0,-2 0,0 0,0 0,0 30,2 60,3 91,3 -3,13 -9,21 -26,20 -7,-1 -13,-4 -20,-3 -5,1 -10,4 -14,7 -5,4 -28,37 -39,20 3,-15 6,-30 8,-45zm-18 -54c-3,-8 -6,-15 -10,-22 107,8 219,2 326,-5 3,19 12,40 21,57 -79,6 -158,8 -238,11 -5,-46 -63,-49 -99,-41zm1 -38c3,-4 6,-8 8,-12 106,9 216,2 322,-4 -4,4 -7,8 -11,13 -1,-1 -3,0 -4,2 -107,1 -216,0 -323,9 3,-3 5,-6 8,-8zm344 65c-3,-10 -7,-20 -10,-31 -4,-11 -6,-22 -10,-33 0,0 0,0 0,0 5,-4 9,-8 14,-12 0,25 1,52 6,76zm7 21c2,3 3,7 5,11 4,5 6,11 10,16 -6,5 -9,18 -11,25 -4,11 -9,22 -13,34 5,-29 8,-58 9,-86zm41 24c0,0 -1,0 -1,0 -5,-1 -11,-2 -17,-3 -2,-5 -6,-10 -10,-15 -4,-6 -8,-12 -12,-18 15,11 28,23 40,36zm12 13c0,1 1,2 1,3 -1,-1 -3,0 -5,2 -17,16 -32,34 -47,52 1,-3 2,-7 4,-10 3,-9 19,-45 13,-52 2,2 5,1 6,-1 0,-1 0,-1 1,-2 4,1 8,2 11,4 5,2 10,5 16,4zm16 9c0,-1 0,-1 0,-1 1,-1 2,-4 0,-6 -16,-26 -39,-47 -67,-60 0,-27 -4,-55 -6,-82 6,-2 5,-12 -2,-11 -112,4 -225,1 -337,9 -1,-1 -2,-2 -3,-1 -1,0 -2,1 -2,1 0,0 -1,0 -1,0 -4,3 -7,7 -10,11 -4,6 -9,12 -12,18 -1,0 -1,0 -1,0 -1,2 -2,3 -1,5 4,15 10,29 15,43 4,9 7,22 17,27 0,1 1,0 2,-1 4,-10 -4,-24 -8,-34 31,-3 73,-7 84,29 -24,1 -47,2 -71,3 -3,0 -4,2 -4,4 -2,-1 -5,0 -5,3 -9,43 -20,85 -30,128 0,0 0,0 0,1 -1,0 -1,1 -2,3 -21,193 -8,396 -1,590 0,2 1,4 2,5 1,3 2,5 6,5 118,7 238,0 356,-4 0,0 0,0 0,0 3,2 6,2 8,-1 31,-50 62,-104 86,-158 2,-3 1,-6 -1,-8 16,-169 11,-351 -12,-518z"/>
 </g>
</svg>
