<?xml version="1.0" encoding="UTF-8"?>
<!DOCTYPE svg PUBLIC "-//W3C//DTD SVG 1.1//EN" "http://www.w3.org/Graphics/SVG/1.1/DTD/svg11.dtd">
<!-- Creator: CorelDRAW X7 -->
<svg xmlns="http://www.w3.org/2000/svg" xml:space="preserve" width="1074px" height="1024px" version="1.1" style="shape-rendering:geometricPrecision; text-rendering:geometricPrecision; image-rendering:optimizeQuality; fill-rule:evenodd; clip-rule:evenodd"
viewBox="0 0 1074 1024"
 xmlns:xlink="http://www.w3.org/1999/xlink">
 <defs>
  <style type="text/css">
   <![CDATA[
    .fil0 {fill:none}
    .fil1 {fill:#767373;fill-rule:nonzero}
   ]]>
  </style>
 </defs>
 <g id="Layer_x0020_1">
  <metadata id="CorelCorpID_0Corel-Layer"/>
  <rect class="fil0" width="1074" height="1024"/>
  <path class="fil1" d="M448 361c-2,2 -4,3 -6,5 -2,-13 -4,-26 -6,-39 0,-1 0,-3 -1,-4 -13,-81 -29,-161 -46,-241 1,1 2,0 3,0 4,-2 9,-4 14,-5 28,92 31,189 42,284zm8 11c1,-1 3,-1 4,-3 23,-13 48,-15 68,12 23,30 24,89 -23,95 -35,4 -60,-40 -40,-67 11,-14 33,-22 42,-3 9,16 -3,32 -17,40 1,-2 1,-5 -2,-7 -3,-3 -6,-7 -7,-12 -1,-7 -13,-6 -12,2 2,8 6,15 12,20 2,1 4,1 6,1 -2,4 2,11 7,7 18,-10 30,-26 27,-48 -3,-17 -18,-27 -34,-26 -23,1 -40,26 -42,46 -2,21 13,42 30,51 35,19 64,1 75,-28 11,11 15,26 7,41 -29,4 -57,6 -86,8 -19,-11 -29,-25 -36,-46 2,-10 2,-20 -1,-30 -4,-8 -9,-15 -15,-20 3,-1 6,-4 5,-8 4,-4 9,-8 14,-13 2,0 5,-1 5,-4 4,-3 8,-6 13,-8zm49 -58c12,-2 17,-1 22,11 4,10 6,21 7,31 -2,1 -3,2 -5,3 -1,1 -2,2 -2,3 -8,-7 -17,-12 -28,-14 -14,-4 -27,0 -40,6 -1,-9 -2,-19 -3,-28 16,-5 32,-9 49,-12zm90 36l0 1c0,7 10,8 12,3 2,1 5,2 7,4 17,10 23,31 38,45 25,22 57,32 89,25 27,-6 49,-28 54,-55 9,14 10,31 3,47 -18,6 -36,12 -53,19 -2,-1 -3,-1 -5,-1 -28,5 -55,13 -83,4 -2,-1 -4,-1 -5,0 -3,-51 -59,-100 -110,-62l-1 0c-2,-3 -4,-7 -7,-10l2 -1c19,-13 39,-23 59,-19zm56 -21c-12,4 -21,11 -26,22 -3,-3 -6,-5 -10,-7 -2,-1 -4,-2 -6,-2 6,-16 25,-15 42,-13zm38 4l-3 2c-20,16 -18,42 0,58 16,14 49,9 60,-10 12,-23 -8,-31 -28,-27 -7,1 -6,13 2,11 24,-4 16,17 -3,21 -31,7 -40,-31 -19,-47 15,-13 40,-10 58,-4 25,8 34,31 20,53 -14,24 -44,31 -69,27 -25,-3 -47,-19 -60,-40 -4,-5 -8,-11 -12,-16 3,-21 30,-26 54,-28zm208 11c-15,19 -34,36 -49,56 -1,1 -2,3 -1,4 -12,4 -23,7 -35,11 6,-22 0,-44 -18,-61l-1 -1c-6,-12 -18,-20 -30,-26 45,4 89,13 134,17zm60 155c-12,7 -24,13 -36,18 1,-25 -20,-15 -38,-10 1,-5 1,-10 3,-14 1,-4 -3,-8 -7,-7 -9,2 -17,7 -26,10 5,-11 14,-20 18,-31 2,-5 -3,-9 -8,-7 -13,4 -25,12 -38,17 8,-10 16,-18 24,-27 3,-5 -2,-12 -8,-9 -11,4 -21,11 -32,16 10,-9 21,-18 29,-28 2,-2 2,-6 0,-7 2,-1 4,-2 6,-3 10,47 72,64 113,82zm-64 34c-27,18 -52,38 -81,52 -34,16 -49,-24 -68,-44 -8,-8 -16,-16 -24,-23 0,-3 -3,-7 -7,-6 -13,-11 -28,-21 -42,-30 -3,-2 -5,-1 -7,0l-1 -2 0 0c43,-13 85,-30 127,-44 -7,4 -14,10 -20,17 -4,5 2,11 7,9 7,-3 13,-7 19,-10 -3,4 -7,8 -10,12 -2,4 0,11 6,9 10,-2 20,-6 29,-11 -6,7 -11,13 -15,21 -2,4 2,9 6,8 15,-3 27,-10 40,-16 -5,9 -12,18 -14,29 -1,3 3,7 6,6 10,-1 19,-6 28,-10 0,5 -1,10 -1,15 0,3 4,6 7,5 8,-1 33,-16 31,0 0,1 0,2 0,3 -5,3 -11,6 -16,10zm-57 55c-6,81 -15,161 -29,241 -6,3 -12,6 -17,8 6,-6 12,-11 16,-19 3,-5 -1,-11 -7,-9 -13,6 -26,12 -38,20 7,-7 14,-13 21,-20 5,-5 -1,-13 -8,-9 -21,14 -42,28 -62,42 23,-26 51,-47 76,-72 5,-5 -1,-13 -7,-9 -22,13 -43,28 -63,43 25,-26 54,-49 81,-73 4,-5 0,-14 -6,-10l-2 0 0 0 0 0c-25,15 -47,33 -70,50 24,-23 50,-44 77,-64 6,-4 -1,-14 -7,-9 -23,17 -47,33 -71,49 23,-24 50,-44 76,-65 6,-4 -1,-13 -7,-9 -23,17 -46,34 -70,50 27,-26 57,-48 86,-71 6,-5 -1,-14 -7,-10 -33,25 -64,54 -102,73 10,-13 21,-25 34,-37 23,-16 44,-37 65,-54 6,-5 -1,-14 -7,-10 -23,18 -46,36 -67,56 -9,6 -18,10 -27,14 13,-22 31,-40 50,-56 10,-8 20,-16 30,-23 6,-5 -2,-14 -8,-10 -10,8 -20,16 -29,24 -15,11 -30,23 -46,32 10,-26 40,-44 58,-62 6,-5 -1,-13 -7,-9 -17,10 -32,22 -49,32 15,-18 34,-32 49,-50 2,-1 2,-3 2,-4 5,6 10,13 15,20 12,17 19,27 41,24 12,-2 24,-8 36,-15l0 1zm-77 261l0 1c-8,3 -17,6 -25,10 14,-9 28,-18 42,-27 -6,5 -11,10 -17,16zm-42 17c-16,7 -32,15 -48,23l-1 1c2,-66 -5,-133 -4,-199 0,-28 1,-55 2,-82 2,1 5,2 7,1 3,-1 7,-2 10,-4 -5,6 -9,13 -13,20 -3,4 3,9 8,7 5,-2 9,-4 14,-7 -8,11 -15,22 -16,36 -1,4 4,8 8,6 4,-2 7,-4 11,-6 -7,9 -14,19 -19,29 -2,4 2,9 6,8 5,-1 11,-2 15,-4 -8,9 -15,19 -21,30 -3,5 1,11 7,9 5,-2 11,-4 16,-7 -6,6 -11,13 -16,19 -4,6 3,12 9,8 3,-2 7,-4 11,-6 -8,7 -14,15 -21,23 -4,6 3,12 9,8 4,-2 9,-5 13,-8 -9,9 -18,19 -27,29 -3,4 2,12 8,9 11,-6 22,-14 32,-21 -14,13 -27,27 -38,43 -4,5 3,11 8,8 12,-7 23,-15 34,-23 -15,15 -29,30 -41,47 -4,6 3,11 9,8 12,-7 23,-15 34,-23 -3,4 -5,7 -8,10 -3,4 -1,7 2,8zm-24 -315c6,-8 13,-16 20,-23 2,1 4,3 6,5 -9,6 -17,12 -26,18zm35 -10l0 0c4,4 8,8 12,13 -2,-1 -4,-1 -6,0 -16,13 -30,28 -48,38 13,-18 31,-32 42,-51zm-61 10c5,0 9,-2 14,-4 -4,6 -7,12 -9,18 -2,5 3,10 7,8 6,-3 11,-7 17,-10 -11,12 -22,23 -30,38 1,-17 1,-34 1,-50zm-3 -60c13,9 26,18 39,28 -10,8 -21,17 -33,20 4,-9 9,-18 14,-26 4,-6 -5,-13 -9,-7 -4,5 -7,11 -10,16 -1,-11 -2,-22 -3,-33 0,1 1,1 2,2zm-16 -18l-2 0c3,-7 5,-14 6,-21l0 0c14,5 28,6 41,5 -15,6 -30,11 -45,16zm8 425c-89,4 -178,14 -267,4l-2 0 0 0c-17,-57 -34,-113 -56,-167l0 0c12,-4 21,-11 29,-20 -6,11 -12,23 -14,37 -1,5 4,8 8,6 4,-1 8,-3 12,-6 -6,13 -11,26 -12,40 0,4 4,8 8,6 6,-3 12,-6 17,-9 -4,7 -8,15 -11,23 -2,5 3,10 8,8 21,-9 35,-25 52,-39 -14,24 -36,48 -31,76 1,4 6,6 9,3 20,-14 38,-31 57,-47 -10,16 -21,32 -24,51 0,4 3,7 7,6 20,-2 35,-16 52,-26 -8,15 -19,29 -25,45 -2,4 2,8 6,8 21,-2 35,-17 51,-28 -3,7 -7,15 -10,22 -3,7 8,11 11,4 5,-12 12,-24 17,-36 2,-5 -3,-9 -8,-8 -19,7 -33,25 -51,31 8,-16 20,-30 26,-48 2,-5 -3,-9 -8,-7 -19,7 -34,24 -54,30 7,-22 23,-40 32,-61 2,-6 -5,-10 -9,-7 -25,16 -45,37 -68,55 3,-27 32,-52 40,-77 2,-4 -2,-10 -7,-8 -21,11 -36,30 -56,42 13,-25 32,-47 47,-72 4,-6 -5,-13 -10,-7 -17,21 -31,46 -55,60 8,-34 36,-61 52,-92 3,-6 -7,-11 -11,-5 -15,19 -27,44 -48,57 8,-23 26,-42 33,-66 1,-2 0,-5 -2,-6 32,4 64,8 95,9 43,2 63,-28 85,-60 27,-39 51,-81 80,-118 8,66 2,133 1,199 -1,66 7,132 4,198zm-338 -192l0 0c8,-4 15,-8 21,-13 -5,9 -10,19 -14,29 -2,-5 -5,-11 -7,-16zm-5 -32c-2,5 -3,10 -4,14 -5,-10 -10,-20 -16,-30 7,0 14,1 21,2 13,1 26,3 39,4 -10,10 -19,19 -30,26 0,-4 1,-8 1,-11 3,-7 -8,-12 -11,-5zm72 -5l-1 0c-15,15 -27,36 -44,48 7,-17 18,-33 27,-51 6,1 12,2 18,3zm265 -185c-7,8 -13,15 -18,23 -1,-1 -3,-3 -5,-3 -12,-3 -24,-5 -37,-6 11,-2 22,-4 33,-7 1,4 5,6 9,3 2,-2 3,-4 5,-7 4,-1 9,-2 13,-3zm-20 -6c-8,2 -16,4 -24,6 21,-40 -8,-90 -56,-86 -1,-2 -2,-5 -4,-8l3 -1c54,-40 117,41 81,89zm-76 -38c2,-10 2,-20 -1,-30 40,-2 62,44 38,76l-1 1c-6,1 -13,2 -19,3 6,-18 -1,-38 -17,-50zm-409 196c14,-20 30,-37 46,-55 24,-29 44,-63 84,-69 30,-4 63,4 94,5 33,1 66,-1 98,-4l1 1c2,1 5,0 6,-1 9,-1 17,-2 26,-3 -2,3 -1,7 3,9 23,12 51,8 75,16 -27,3 -56,-9 -84,-2 -3,0 -6,4 -4,8 6,12 18,20 31,25 -16,-2 -31,-3 -46,5 -4,2 -5,6 -3,9 4,5 8,10 13,14 -7,0 -14,2 -21,7 -2,1 -3,4 -2,7 4,9 10,15 18,19 -1,0 -2,0 -3,1 -4,1 -7,6 -4,9 2,2 3,4 5,5l-1 0c-7,1 -6,13 2,12 9,-1 19,-1 28,0 6,1 9,-9 3,-11 -6,-2 -12,-3 -17,-5 10,-1 20,1 31,1 7,0 9,-10 1,-12 -8,-2 -16,-3 -24,-5 -7,-1 -14,-4 -20,-8 3,-8 8,-11 15,-8 19,2 36,11 56,11 7,0 9,-10 1,-12 -22,-5 -50,-9 -66,-26 26,-9 56,6 83,3 6,0 7,-9 2,-11 -19,-8 -52,-12 -67,-28 32,-4 62,11 94,-2 3,-1 5,-7 1,-10 -24,-14 -52,-10 -77,-17 21,-6 43,-6 65,-4 0,2 2,4 5,4 11,1 22,1 32,2 -18,25 -35,53 -53,79 -13,21 -27,44 -45,61 -20,18 -53,11 -77,8 -101,-12 -203,-25 -305,-28zm88 -264c42,-14 85,-23 129,-28l0 0c6,14 12,28 18,42 -3,0 -7,-1 -10,-1 -27,-2 -54,11 -71,32 -17,23 -15,56 -12,83 -6,0 -11,1 -16,1l-1 -2c-13,-42 -25,-84 -37,-127zm44 -285l1 0c8,-6 17,-12 26,-18 22,52 42,106 58,160 17,57 28,115 50,169 -5,-3 -11,-6 -17,-8 -45,-99 -78,-202 -118,-303zm148 366c-1,1 -2,2 -1,4 -15,32 -73,50 -81,3 -4,-21 46,-32 44,-12 -1,7 11,9 12,1 3,-36 -47,-23 -62,-7 -1,1 -3,3 -4,4 -18,13 -14,35 -12,55 -3,0 -6,0 -9,0 -5,-1 -9,-1 -13,-1 -3,-28 -4,-57 13,-81 17,-21 48,-27 74,-19 2,2 5,3 7,2 10,4 18,10 25,18 9,11 10,22 7,33zm-94 17c11,23 55,39 77,23 8,-6 15,-13 20,-22 6,13 13,23 24,32 -10,0 -19,1 -28,1 -31,2 -61,1 -92,-2l1 -1c-1,-9 -4,-21 -2,-31zm93 -139c3,15 5,29 7,44 -4,3 -8,7 -12,10 -6,-17 -11,-34 -16,-51 7,-1 14,-2 21,-3zm-16 -267c-7,2 -14,4 -21,7 -3,1 -4,3 -4,5 -3,0 -7,2 -6,7 17,78 32,157 45,237 -7,0 -15,1 -23,2 -9,-32 -16,-65 -26,-97 -16,-57 -37,-113 -61,-167 -2,-4 -6,-5 -10,-2 -10,7 -21,14 -32,22 -2,1 -2,3 -2,4 -3,1 -5,4 -3,8 32,80 60,162 92,242 -46,6 -90,16 -134,31 -3,1 -4,5 -3,8 12,44 26,89 39,133 -6,1 -12,4 -18,7 -22,12 -39,37 -54,56 -19,24 -41,45 -57,71 -2,4 -1,10 4,10 48,0 97,4 146,8 0,1 0,3 0,4 46,77 71,162 96,247 1,3 4,4 6,3 1,2 3,3 5,4 92,10 183,0 275,-5 4,0 5,-3 4,-6 1,-1 2,-2 2,-3l0 -1c1,2 3,3 6,1 43,-24 91,-38 136,-59 3,1 7,-1 8,-5 14,-82 24,-164 30,-247 0,-3 -2,-5 -5,-6 13,-8 25,-18 36,-26 30,-21 63,-34 94,-54 4,-2 2,-8 -2,-10 -35,-18 -107,-33 -115,-79 2,-2 2,-5 1,-7l0 0c18,-23 39,-41 56,-64 3,-4 1,-9 -4,-9 -75,-6 -147,-23 -222,-18 -31,2 -79,-11 -90,22 -18,-3 -35,3 -52,11 -2,-17 -7,-45 -26,-47 -20,-3 -44,6 -64,12 -8,-83 -14,-167 -39,-247 -1,-3 -5,-4 -8,-3z"/>
 </g>
</svg>
