<?xml version="1.0" encoding="UTF-8"?>
<!DOCTYPE svg PUBLIC "-//W3C//DTD SVG 1.1//EN" "http://www.w3.org/Graphics/SVG/1.1/DTD/svg11.dtd">
<!-- Creator: CorelDRAW X7 -->
<svg xmlns="http://www.w3.org/2000/svg" xml:space="preserve" width="1074px" height="1024px" version="1.1" style="shape-rendering:geometricPrecision; text-rendering:geometricPrecision; image-rendering:optimizeQuality; fill-rule:evenodd; clip-rule:evenodd"
viewBox="0 0 1074 1024"
 xmlns:xlink="http://www.w3.org/1999/xlink">
 <defs>
  <style type="text/css">
   <![CDATA[
    .fil0 {fill:none}
    .fil1 {fill:#434546;fill-rule:nonzero}
   ]]>
  </style>
 </defs>
 <g id="Layer_x0020_1">
  <metadata id="CorelCorpID_0Corel-Layer"/>
  <rect class="fil0" width="1074" height="1024"/>
  <path class="fil1" d="M833 673c-5,44 -22,82 -56,112 -61,53 -155,69 -233,71 -81,3 -165,-8 -226,-66 -30,-28 -52,-65 -65,-104 -10,-31 -33,-125 6,-146 0,0 0,1 0,1 -2,1 -4,4 -2,6 70,62 166,89 258,91 53,2 106,-5 158,-17 46,-11 95,-23 132,-53 3,-3 -1,-10 -5,-7 -3,2 -5,4 -7,5 0,-1 0,-1 1,-2 2,-5 3,-9 3,-14 1,0 1,-1 1,-2 1,-1 1,-1 1,-2 0,0 0,0 1,1 46,22 38,83 33,126zm-566 -131c1,-10 1,-18 4,-28 2,-4 8,-23 14,-25 0,0 0,0 0,0 7,1 14,0 20,-2 10,-4 17,-11 23,-19 7,-12 10,-36 22,-44 1,0 2,0 3,0 2,0 4,-1 6,-2 3,0 6,0 9,2 5,1 8,5 9,10 5,20 16,47 38,49 7,0 14,-3 19,-7 5,-5 9,-11 12,-16 2,-5 4,-9 6,-13 4,-13 12,-15 24,-7 2,33 9,102 56,84 3,-1 5,-2 8,-4 5,34 -4,63 -11,96 -1,2 0,3 0,4l0 0c-1,3 -3,5 -4,8 0,0 0,0 0,0 -4,0 -7,0 -10,0 -92,-2 -174,-32 -249,-83 1,-1 1,-2 1,-3zm16 -123c10,-21 26,-33 49,-34 1,1 3,2 4,1 0,-1 0,-1 0,-1 1,0 1,0 2,0 3,0 4,-2 4,-4 32,-24 77,-26 115,-16 29,7 48,22 60,50 4,11 7,19 15,28 1,1 3,1 4,0 7,9 15,19 18,30 4,18 -11,40 -29,44 -39,8 -37,-59 -43,-81 0,-2 -1,-2 -3,-3 -3,-10 -16,-12 -26,-3 -12,11 -13,35 -28,42 -27,12 -38,-32 -46,-48 0,-1 -1,-1 -2,-1 -1,-3 -4,-5 -6,-7 -7,-4 -17,-3 -22,3 -8,1 -12,6 -15,13 -9,19 -14,47 -40,48 -39,3 -21,-43 -11,-61zm154 -81c1,-6 4,-11 8,-16 14,9 34,8 48,-1 -12,46 52,60 83,35 7,-7 12,-19 21,-22 5,-2 20,3 26,2 17,-4 32,-16 30,-33 11,4 24,3 34,-1 7,8 13,17 18,27 5,10 7,20 10,30 -15,-7 -31,-10 -48,-8 -29,2 -55,16 -74,38 -9,10 -16,20 -29,26 -4,2 -10,1 -15,4 -8,4 -12,9 -12,18 -1,0 -2,-1 -2,-1 -10,-20 -13,-41 -29,-56 -17,-17 -41,-24 -64,-28 -2,0 -5,0 -7,0 1,-5 0,-10 2,-14zm334 118c-21,34 -47,-30 -70,-28 -16,2 -15,22 -11,37 2,12 8,24 10,37 3,17 6,34 -1,49 -4,5 -8,9 -14,10 -3,1 -6,2 -9,1 0,0 -1,0 -1,0 -1,0 -2,0 -4,0 -3,-1 -6,-2 -9,-4 -2,-3 -4,-7 -3,-12 -3,-10 -3,-16 -2,-27 3,-30 1,-65 -33,-75 0,0 -1,0 -2,0 0,0 0,0 0,0 0,0 0,0 -1,-1 -1,0 -2,1 -3,2 -8,3 -13,10 -20,15 -11,9 -21,12 -35,12 0,0 0,0 0,0 -3,-13 -12,-24 -23,-32 1,0 1,-1 1,-1 4,-14 36,-19 47,-31 18,-19 31,-36 58,-45 61,-20 130,28 125,93zm18 89c-1,2 0,4 1,5 -2,3 -3,7 -5,11 -2,5 -6,9 -8,14 0,0 -1,1 0,1 -33,18 -71,27 -106,35 -45,11 -91,17 -137,17 1,-1 2,-3 2,-5 0,-1 0,-2 0,-2 1,-1 1,-1 1,-1 14,-32 21,-70 8,-103 10,-8 17,-20 18,-32 1,-2 1,-3 1,-5 10,3 20,-1 29,-6 11,-6 18,-17 28,-25 20,12 32,28 31,53 -1,14 -6,29 -3,44 3,16 15,33 33,32 58,-6 18,-92 14,-128 2,-2 5,-4 7,-6 1,-1 2,-1 2,-1 5,0 8,2 12,4 0,0 1,1 1,1 8,8 15,19 26,24 9,4 21,3 27,-4 11,25 23,49 18,77zm-224 -306c10,-3 18,3 26,6 3,1 5,-2 3,-4 -1,-3 -3,-5 -6,-7 7,-6 18,-9 26,-5 9,5 12,17 9,26 -2,0 -5,-1 -8,0 -9,2 -15,9 -16,18 -7,-4 -16,-2 -21,4 -3,-10 -15,-18 -25,-17 -2,-9 3,-18 12,-21zm12 -25c2,5 4,11 7,16 0,0 0,1 1,1 0,0 -1,1 -1,1 -3,-1 -5,-1 -8,-2 2,-5 2,-10 1,-16zm-22 -43c-18,-27 -41,-53 -69,-69 0,0 0,0 0,0 1,-3 2,-6 5,-7 2,-1 4,0 6,0 18,21 37,41 52,64 4,8 9,15 13,23 -3,-4 -6,-8 -7,-11zm250 368c-2,-1 -4,-1 -5,0 2,-27 -8,-53 -23,-75 0,-1 0,-1 -1,-1 1,0 1,-1 1,-1 8,-43 -17,-80 -53,-99 0,-1 1,-1 1,-2 -1,-22 -14,-47 -31,-63 11,-6 18,-17 18,-31 0,-14 -7,-25 -20,-31 -5,-3 -12,-5 -19,-5 3,-16 -17,-31 -30,-38 -19,-10 -45,-10 -60,6 -3,2 0,7 4,5 17,-10 33,-12 51,-3 13,6 27,18 24,33 -2,1 -3,2 -4,4 -1,2 1,5 4,4 18,-6 43,7 39,29 -4,24 -31,28 -51,24 -2,-1 -4,1 -4,3 -1,1 -1,2 -1,3 -13,26 -30,33 -51,22 -2,-1 -5,-1 -6,1 -8,14 -17,26 -32,33 -32,13 -58,-7 -58,-40 0,-2 -2,-2 -3,-1 0,-1 -1,-1 -3,-1 -11,4 -22,8 -34,5 -10,-4 -18,-12 -20,-23 -2,-23 24,-29 43,-26 3,2 6,3 9,3 1,0 1,0 2,0 1,2 1,3 3,4 1,1 2,0 2,0 2,-3 1,-6 1,-9 1,-3 3,-6 4,-9 1,-2 -3,-5 -5,-3 -3,2 -5,6 -6,10 -7,-2 -14,-9 -10,-18 3,-8 12,-10 20,-8 1,0 1,0 1,0 1,1 2,1 3,1 0,0 0,0 0,0 3,1 5,-3 2,-5 0,0 0,0 -1,0 -9,-15 -2,-34 17,-34 18,0 29,16 32,32 -8,7 -12,17 -8,26 -11,5 -20,20 -13,31 1,2 4,1 4,-1 0,-10 3,-21 15,-23 5,-1 10,1 14,5 4,5 4,10 5,15 1,3 4,3 5,1 1,-1 2,-3 2,-5 4,-7 13,-11 21,-1 2,3 8,1 7,-3 -1,-8 3,-17 12,-17 7,0 11,6 13,12 2,3 7,3 7,-1 0,-7 -4,-13 -9,-16 5,-13 0,-29 -13,-36 -10,-4 -20,-2 -28,4 -13,-49 -47,-102 -88,-134 -2,-6 -10,-7 -15,-4 -5,3 -7,9 -5,14 0,1 0,1 0,2 0,0 0,0 1,1 18,15 36,29 51,48 10,13 44,58 38,77 -3,0 -7,0 -10,1 -3,-22 -20,-42 -45,-37 -16,4 -28,24 -21,39 -10,0 -19,5 -22,15 -2,5 -1,11 2,16 -22,-3 -46,6 -46,31 0,10 4,18 11,24 -6,3 -10,9 -12,15 -2,5 -3,11 -3,17 -32,-2 -68,2 -89,26 -22,-2 -42,8 -55,26 -12,18 -28,48 -18,70 4,7 9,11 15,14 -6,3 -10,11 -12,17 -4,8 -8,18 -8,27 -33,8 -30,54 -29,81 3,51 18,102 47,144 58,86 151,112 251,111 94,0 213,-18 278,-94 31,-37 38,-81 40,-128 2,-40 1,-86 -40,-106z"/>
 </g>
</svg>
