<?xml version="1.0" encoding="UTF-8"?>
<!DOCTYPE svg PUBLIC "-//W3C//DTD SVG 1.1//EN" "http://www.w3.org/Graphics/SVG/1.1/DTD/svg11.dtd">
<!-- Creator: CorelDRAW X7 -->
<svg xmlns="http://www.w3.org/2000/svg" xml:space="preserve" width="1074px" height="1024px" version="1.1" style="shape-rendering:geometricPrecision; text-rendering:geometricPrecision; image-rendering:optimizeQuality; fill-rule:evenodd; clip-rule:evenodd"
viewBox="0 0 1074 1024"
 xmlns:xlink="http://www.w3.org/1999/xlink">
 <defs>
  <style type="text/css">
   <![CDATA[
    .fil0 {fill:none}
    .fil1 {fill:#434546;fill-rule:nonzero}
   ]]>
  </style>
 </defs>
 <g id="Layer_x0020_1">
  <metadata id="CorelCorpID_0Corel-Layer"/>
  <rect class="fil0" width="1074" height="1024"/>
  <g id="_599824192">
   <path class="fil1" d="M562 772c-96,1 -193,-26 -262,-96 -76,-77 -96,-179 -80,-283 48,22 104,29 155,38 2,1 5,2 7,1 56,9 112,15 169,18 120,7 241,1 360,-20 17,198 -162,339 -349,342zm76 40c-30,5 -60,8 -91,7 -28,0 -56,-3 -83,-9 -10,-1 -22,-2 -31,-7 -25,-11 -21,-19 -19,-39 43,15 88,22 133,23 42,1 84,-5 123,-17 3,26 -2,36 -32,42zm-270 -395c-46,-6 -94,-14 -136,-30 39,-3 78,-4 117,-5 6,12 12,24 19,35zm15 -36c3,14 7,27 11,40 -4,0 -8,-1 -12,-1 -4,-13 -10,-26 -15,-39 5,0 11,0 16,0zm186 2c106,4 227,-4 328,36 -109,16 -219,24 -330,19 -54,-2 -107,-7 -161,-15 -1,-14 -2,-28 -4,-42 56,-1 111,0 167,2zm355 36c-1,-5 -5,-7 -9,-7 0,0 -1,-1 -2,-1 -94,-47 -216,-36 -319,-40 -64,-3 -129,-6 -194,-5 -10,-92 -29,-185 -46,-275 -2,-10 -20,-8 -19,3 9,89 22,183 44,272 -6,0 -12,0 -18,1 -10,-23 -20,-46 -30,-69 -21,-45 -38,-95 -65,-138 -4,-8 -17,-3 -15,6 13,44 36,86 55,127 12,25 23,50 35,74 -41,2 -81,6 -122,12 -1,0 -2,1 -3,2 -2,1 -4,4 -3,7 -31,95 -5,203 58,279 37,44 84,75 135,94 -6,24 -13,36 7,51 30,21 99,21 134,21 24,1 48,-1 71,-4 16,-2 51,-3 63,-13 16,-12 7,-31 1,-50 148,-49 264,-178 242,-347z"/>
   <path class="fil1" d="M617 328c-12,-6 -29,-9 -40,-16 -22,-4 -26,-19 -12,-47 2,-4 5,-7 8,-11 4,-14 12,-25 4,-40 -8,-16 -23,-14 -35,-23 -30,-24 4,-52 -13,-81 -4,-7 -15,-2 -13,6 6,27 -21,55 -1,80 5,6 12,7 18,12 14,10 11,-3 18,21 8,22 3,16 -7,34 -33,54 27,65 69,74 5,1 9,-7 4,-9z"/>
   <path class="fil1" d="M473 246c-4,-19 -17,-22 -27,-35 -16,-23 5,-41 2,-65 -2,-17 -9,-29 -22,-38 -6,-3 -13,4 -10,10 13,20 16,36 8,58 -4,9 -7,18 -4,28 2,6 6,11 11,16 5,6 11,8 16,14 10,13 12,28 6,45 -2,4 5,8 9,5 10,-11 14,-23 11,-38z"/>
   <path class="fil1" d="M693 251c0,-1 0,-1 1,-2 12,-6 27,-5 37,-17 7,-9 8,-21 4,-31 -7,-20 -44,-28 -26,-58 10,-16 26,-18 24,-39 -1,-9 -14,-9 -15,0 -2,21 -26,26 -31,45 -3,11 0,23 6,32 4,5 8,8 13,11 3,3 7,5 10,8 5,19 0,30 -16,33 -6,5 -11,6 -15,10 -14,2 -19,21 -18,34 2,19 12,39 29,49 4,3 10,-4 6,-8 -10,-9 -16,-20 -19,-32 -2,-8 -3,-16 0,-24 3,-4 7,-7 10,-11z"/>
   <path class="fil1" d="M852 207c-2,-5 -9,-2 -9,3 -1,16 9,38 2,54 -9,23 -32,11 -48,22 -13,9 -16,27 -9,41 1,3 5,4 7,1 1,-1 3,-3 4,-4 2,-3 0,-7 -4,-6 -4,-27 27,-19 44,-26 8,-3 14,-9 18,-16 10,-20 5,-50 -5,-69z"/>
  </g>
 </g>
</svg>
