<?xml version="1.0" encoding="UTF-8"?>
<!DOCTYPE svg PUBLIC "-//W3C//DTD SVG 1.1//EN" "http://www.w3.org/Graphics/SVG/1.1/DTD/svg11.dtd">
<!-- Creator: CorelDRAW X7 -->
<svg xmlns="http://www.w3.org/2000/svg" xml:space="preserve" width="1074px" height="1024px" version="1.1" style="shape-rendering:geometricPrecision; text-rendering:geometricPrecision; image-rendering:optimizeQuality; fill-rule:evenodd; clip-rule:evenodd"
viewBox="0 0 1074 1024"
 xmlns:xlink="http://www.w3.org/1999/xlink">
 <defs>
  <style type="text/css">
   <![CDATA[
    .fil0 {fill:none}
    .fil1 {fill:#434546;fill-rule:nonzero}
   ]]>
  </style>
 </defs>
 <g id="Layer_x0020_1">
  <metadata id="CorelCorpID_0Corel-Layer"/>
  <rect class="fil0" width="1074" height="1024"/>
  <g id="_597656920">
   <path class="fil1" d="M479 528c-29,-10 -53,-48 -48,-79 1,-1 0,-2 0,-3 4,2 8,3 12,5 1,28 23,53 48,64 18,8 57,3 54,-22 5,2 10,4 15,6 -22,22 -48,41 -81,29zm22 -53c-1,1 -1,1 -1,1 -1,7 -2,15 4,20 5,3 11,3 14,-2 2,-3 -1,-6 -3,-4 -3,2 -6,0 -7,-2 -2,-3 -1,-7 -1,-10 10,4 20,8 29,11 -19,49 -74,1 -85,-34 17,7 33,14 50,20zm68 16c-40,-16 -79,-31 -119,-45 0,0 0,0 0,-1 -1,-3 -5,-3 -6,-1 -4,-1 -8,-3 -11,-4 -3,-1 -5,2 -4,4 -2,-1 -5,0 -6,3 -14,35 16,81 50,94 35,13 76,-4 94,-37 0,-1 0,-2 0,-3 5,1 7,-7 2,-10z"/>
   <path class="fil1" d="M489 479c-3,0 -5,-2 -6,-4 0,-4 -7,-3 -7,1 0,8 8,13 16,9 3,-2 0,-7 -3,-6z"/>
   <path class="fil1" d="M294 452c-3,-1 -5,1 -5,3 1,4 3,5 3,9 0,3 4,3 5,1 1,-5 1,-10 -3,-13z"/>
   <path class="fil1" d="M578 318c-1,2 -4,5 -7,4 -3,-1 -3,-4 -2,-7 1,-2 -3,-4 -4,-2 -4,6 -2,13 4,16 7,2 14,-2 15,-10 0,-3 -5,-4 -6,-1z"/>
   <path class="fil1" d="M572 337c-7,3 -9,11 -5,17 1,2 4,0 3,-2 -1,-4 1,-10 6,-10 3,0 4,3 7,5 2,2 4,1 4,-2 1,-7 -9,-11 -15,-8z"/>
   <path class="fil1" d="M533 651c-72,-5 -145,-13 -217,-25 -76,-11 -126,-41 -171,-101 52,29 110,38 168,46 68,10 136,20 205,27 137,14 281,18 416,-17 -94,111 -271,80 -401,70zm284 -175c0,0 0,1 0,1 -3,-1 -6,-1 -9,-1 14,-26 -7,-64 -29,-80 1,-3 3,-6 4,-9 31,19 55,52 34,89zm-48 15c-4,-9 -12,-17 -21,-18 0,0 0,0 0,0 9,-24 18,-47 28,-70 9,10 17,21 21,35 3,13 1,25 2,38 -11,2 -22,7 -30,15zm-159 -209c0,-2 -1,-5 -4,-5 -31,-1 -79,31 -76,65 -3,0 -7,0 -10,2 0,-1 0,-1 0,-1 2,-23 17,-39 34,-52 11,-8 33,-24 48,-24 11,1 9,7 8,15zm-1 5c-1,8 -2,17 -3,25 -3,19 -6,37 -8,56 -11,-6 -26,-6 -39,-1 -2,-12 -12,-21 -23,-24 1,-37 46,-46 72,-59 1,0 1,-1 2,-1 -1,1 -1,2 -1,4zm-280 159c3,16 -3,29 -7,43 -3,-3 -6,-6 -10,-8 9,-19 12,-48 -3,-64 0,0 0,0 0,0 1,-4 2,-8 2,-12 9,12 16,25 18,41zm-22 32c-2,0 -4,-1 -6,-1 -10,-3 -20,-2 -28,3 -2,-3 -4,-5 -7,-7 16,-10 32,-28 40,-47 2,8 5,16 5,24 1,10 -1,19 -4,28zm639 93c0,-4 -4,-8 -9,-7 -1,0 -3,1 -4,1 1,-15 -10,-30 -22,-40 8,-10 10,-23 2,-34 -4,-5 -9,-8 -14,-9 -15,-5 -14,8 -11,-11 8,-38 -23,-59 -54,-40 -6,-24 -28,-46 -51,-58 -2,-2 -7,-1 -8,2 -2,4 -4,8 -6,12 -4,-7 -14,-12 -23,-11 -4,0 -7,1 -11,4 3,-16 0,-33 -11,-46 -14,-17 -35,-15 -51,-5 -4,-26 -35,-41 -53,-23 1,-9 2,-18 3,-28 2,-15 1,-27 -17,-25 -38,3 -88,39 -93,79 -1,-3 -2,-6 -3,-8 -5,-10 -15,-17 -26,-19 -15,-2 -30,7 -35,20 -14,-20 -41,-31 -65,-20 -28,13 -30,40 -19,63 -20,-4 -41,9 -43,35 -3,-4 -8,-7 -12,-9 -2,-1 -3,0 -4,1 -3,-1 -5,0 -6,3 -6,12 -8,25 -15,37 -2,4 -5,7 -7,11 -7,-23 -28,-36 -50,-19 -16,13 -29,37 -24,57 -9,1 -17,4 -21,13 -8,16 5,32 21,34 4,1 4,-5 0,-7 -23,-8 -4,-37 11,-22 7,5 17,-4 10,-10 -13,-11 -6,-30 2,-42 7,-10 7,-11 22,-9 16,1 13,1 18,13 0,1 1,2 1,3 -4,4 -8,7 -12,11 0,0 -1,1 -1,1 -4,0 -8,1 -11,4 -4,3 -1,8 4,6 11,-2 16,2 15,10 0,7 7,8 11,5 7,-6 17,-7 25,-4 9,3 12,10 18,15 3,3 9,1 10,-4 1,0 2,0 3,-2 24,-22 18,-67 -3,-92 1,0 3,-1 3,-3 4,-22 27,-36 47,-19 5,5 13,-2 8,-8 -20,-23 -19,-63 19,-63 22,-1 33,14 44,32 2,5 10,1 9,-4 -1,-2 -1,-4 -2,-5 5,-14 17,-25 33,-17 7,4 11,10 12,18 2,6 1,13 5,18 0,4 4,6 6,3 16,-16 41,-4 35,18 -2,7 6,11 11,7 22,-18 42,-2 48,21 1,7 11,5 12,-2 1,-11 -3,-20 -9,-27 2,-1 3,-2 3,-4 2,-17 5,-34 7,-52 5,-6 12,-11 21,-10 14,1 26,15 19,30 -3,7 5,15 11,9 15,-15 39,-20 49,4 7,16 2,31 -7,46 -4,6 6,14 11,8 1,-1 2,-2 3,-4 2,2 6,2 6,-2 1,-9 9,-16 18,-15 8,1 10,8 15,13 -10,23 -19,47 -25,71 0,2 0,3 1,4 -2,1 -4,2 -6,3 -14,9 -12,32 5,35 3,1 6,-3 3,-5 -4,-2 -5,-6 -3,-12 -2,-16 5,-14 21,7 0,5 6,7 9,4 10,-9 20,-18 34,-18 17,1 29,18 16,32 -5,5 1,12 7,9 18,-9 16,-34 2,-46 -1,-1 -2,-1 -3,-2 0,0 0,0 0,0 10,-14 13,-28 11,-41 34,-2 48,9 39,32 -2,4 -3,7 -4,11 0,2 0,5 2,6 1,1 6,4 6,5 1,0 2,0 2,0 13,-2 18,7 15,27 -4,3 -2,9 1,12 13,7 20,18 22,32 -1,1 -2,2 -3,3 -129,24 -257,27 -389,15 -130,-12 -264,-25 -388,-70 -1,0 -2,0 -2,1 -4,-3 -9,1 -7,6 32,61 79,102 148,117 83,18 170,25 255,31 125,10 344,48 417,-88 3,-5 0,-8 -4,-9z"/>
   <path class="fil1" d="M788 442c-4,0 -7,-2 -10,-4 -3,-2 -6,2 -3,5 3,4 8,6 13,6 5,1 5,-7 0,-7z"/>
   <path class="fil1" d="M785 461c-4,2 -8,3 -11,0 -3,-2 -7,3 -4,5 5,5 13,6 18,0 3,-2 0,-6 -3,-5z"/>
   <path class="fil1" d="M644 492c-11,2 -17,12 -17,22 -11,-7 -23,-10 -32,1 -8,10 0,25 13,23 3,-1 2,-6 -1,-6 1,-5 2,-9 3,-14 3,0 6,0 8,2 5,2 9,6 13,9 4,4 12,-1 8,-6 -4,-6 -3,-14 2,-19 11,-9 23,5 20,16 -1,6 7,8 9,3 6,-16 -9,-35 -26,-31z"/>
   <path class="fil1" d="M500 396c-13,-7 -27,-3 -37,6 -7,-9 -16,-19 -29,-15 -11,3 -14,17 -6,24 3,4 8,-1 5,-5 3,-3 6,-7 9,-11 5,1 8,4 11,8 2,3 4,6 5,10 1,3 6,4 8,1 6,-7 15,-13 25,-10 11,4 12,13 10,23 -1,5 5,9 8,5 10,-11 3,-29 -9,-36z"/>
  </g>
 </g>
</svg>
