<?xml version="1.0" encoding="UTF-8"?>
<!DOCTYPE svg PUBLIC "-//W3C//DTD SVG 1.1//EN" "http://www.w3.org/Graphics/SVG/1.1/DTD/svg11.dtd">
<!-- Creator: CorelDRAW X7 -->
<svg xmlns="http://www.w3.org/2000/svg" xml:space="preserve" width="1074px" height="1024px" version="1.1" style="shape-rendering:geometricPrecision; text-rendering:geometricPrecision; image-rendering:optimizeQuality; fill-rule:evenodd; clip-rule:evenodd"
viewBox="0 0 1074 1024"
 xmlns:xlink="http://www.w3.org/1999/xlink">
 <defs>
  <style type="text/css">
   <![CDATA[
    .fil0 {fill:none}
    .fil1 {fill:#434546;fill-rule:nonzero}
   ]]>
  </style>
 </defs>
 <g id="Layer_x0020_1">
  <metadata id="CorelCorpID_0Corel-Layer"/>
  <rect class="fil0" width="1074" height="1024"/>
  <path class="fil1" d="M713 210c-4,-7 -10,-13 -18,-18 5,-11 10,-21 15,-32 28,4 54,10 78,22 -23,10 -49,20 -75,28zm-186 260c-54,-29 -91,-97 -122,-147 -26,-42 -48,-85 -71,-129 68,56 169,70 267,59 -8,24 1,50 25,60 -3,6 -6,12 -9,18 -6,12 -15,25 -16,38 0,7 8,9 12,5 10,-9 15,-25 21,-37 3,-6 6,-13 9,-20 49,6 86,-47 76,-90 25,-8 48,-17 68,-27 -38,101 -135,338 -260,270zm193 401c-3,113 -305,97 -303,20 17,-41 83,-40 126,-46 0,4 -1,8 -1,12 0,9 14,9 14,0 1,-5 1,-10 1,-15 2,-1 2,-5 1,-6 5,-111 13,-225 4,-334 0,0 0,0 0,0 8,1 16,0 24,-1 -20,118 -14,241 2,359 1,9 14,9 13,0 -1,-8 -1,-15 -2,-23 43,5 90,0 121,34zm-307 -710c42,-3 85,-4 127,-4 48,-1 101,-4 153,1 -3,9 -6,17 -9,26 -30,2 -58,24 -74,49 -103,14 -210,1 -286,-64 30,2 59,-5 89,-8zm224 68c1,-1 1,-2 2,-3 13,-12 27,-20 42,-29 1,2 2,3 4,4 4,5 7,9 10,15 -19,5 -38,9 -58,13zm12 64c4,1 8,1 12,-1 4,-2 2,-7 -2,-8l0 0c1,-2 -1,-5 -3,-4 -3,1 -5,2 -7,3 -4,-1 -7,-3 -10,-6 -1,-3 -6,-1 -5,2 1,3 3,5 5,8 -2,1 -5,1 -8,2 -2,1 -3,4 -1,5 -18,-9 -15,-28 -7,-44 27,-4 53,-10 78,-18 3,12 3,25 -4,37 -9,17 -28,30 -48,30 0,-1 1,-1 1,-1 0,-2 0,-4 -1,-5zm158 -122c-28,-15 -58,-23 -90,-28 12,-28 23,-56 32,-84 2,-8 -10,-14 -14,-6 -14,28 -26,58 -37,88 -45,-4 -91,-2 -135,-2 -68,0 -184,-15 -244,26 -1,0 -1,0 -2,-1 -4,-4 -10,2 -6,7 1,1 2,2 3,3 27,84 72,160 124,231 29,39 64,86 115,95 -10,110 -7,223 -10,333 -51,-1 -155,9 -141,76 0,3 3,4 5,4 25,68 322,85 326,-27 3,1 6,-2 4,-5 -1,-5 -4,-10 -7,-15 0,-2 -1,-5 -2,-8 -1,-3 -4,-4 -6,-3 -29,-33 -82,-40 -125,-31 -10,-108 -7,-215 -4,-324 44,-10 78,-48 103,-84 50,-70 88,-148 114,-229 0,-2 0,-3 0,-4 3,-4 3,-9 -3,-12z"/>
 </g>
</svg>
