<?xml version="1.0" encoding="UTF-8"?>
<!DOCTYPE svg PUBLIC "-//W3C//DTD SVG 1.1//EN" "http://www.w3.org/Graphics/SVG/1.1/DTD/svg11.dtd">
<!-- Creator: CorelDRAW X7 -->
<svg xmlns="http://www.w3.org/2000/svg" xml:space="preserve" width="1074px" height="1024px" version="1.1" style="shape-rendering:geometricPrecision; text-rendering:geometricPrecision; image-rendering:optimizeQuality; fill-rule:evenodd; clip-rule:evenodd"
viewBox="0 0 1074 1024"
 xmlns:xlink="http://www.w3.org/1999/xlink">
 <defs>
  <style type="text/css">
   <![CDATA[
    .fil0 {fill:none}
    .fil1 {fill:#434546;fill-rule:nonzero}
   ]]>
  </style>
 </defs>
 <g id="Layer_x0020_1">
  <metadata id="CorelCorpID_0Corel-Layer"/>
  <rect class="fil0" width="1074" height="1024"/>
  <g id="_538403696">
   <path class="fil1" d="M789 669c59,12 148,32 146,110 -2,69 -71,104 -128,121 -114,35 -229,42 -346,18 -99,-21 -207,-44 -293,-100 -61,-40 -90,-111 -37,-173 42,-46 109,-48 165,-33 5,11 10,22 16,32 -50,12 -84,56 -43,105 24,27 64,39 97,50 49,16 99,27 150,32 80,9 198,12 272,-28 60,-32 19,-87 -30,-100 9,-9 17,-20 24,-32 1,-1 2,-3 3,-4 1,1 2,2 4,2zm-38 47c34,5 40,31 18,78 -10,3 -20,6 -31,8 -23,6 -48,10 -72,13 -44,5 -88,5 -132,2 -49,-4 -98,-13 -146,-27 -18,-6 -36,-12 -53,-19 -25,-8 -45,-22 -61,-42 2,-39 16,-64 43,-76 43,69 113,118 217,125 78,5 158,-12 213,-64 1,1 3,2 4,2zm-307 -235c20,30 41,59 63,86 -10,6 -20,11 -31,15 -15,6 -25,10 -39,-2 -7,-6 -14,-16 -21,-23 -8,-9 -25,-23 -29,-35 20,-12 38,-27 57,-41zm-167 -149c11,14 29,27 35,32 25,18 53,30 83,39 -5,27 4,60 18,81 -13,9 -25,20 -35,31 -2,0 -3,1 -4,3 -5,9 -3,11 2,20 13,21 35,41 53,58 9,10 16,15 29,13 22,-4 47,-22 67,-32 5,-3 5,-9 1,-13 -26,-31 -50,-64 -72,-99 -3,-3 -8,-5 -12,-3 -6,5 -13,10 -20,15 -6,-21 -13,-41 -12,-64 0,-1 0,-3 1,-6 32,9 66,14 98,19 69,9 140,11 209,-3 36,-7 94,-17 120,-49 -10,78 -18,160 -45,234 -39,107 -130,156 -242,153 -92,-1 -174,-40 -223,-115 1,-2 0,-4 -3,-5 -5,-8 -10,-17 -15,-27 -42,-90 -32,-186 -33,-282zm182 70c-15,-3 -30,-6 -44,-10 2,-6 6,-11 12,-12 11,-2 25,9 30,18 1,1 1,3 2,4zm-181 -93c31,-25 112,-11 150,-10 44,1 87,2 131,5 92,6 188,9 274,46 0,0 1,0 1,0 -27,49 -115,60 -164,65 -49,5 -99,3 -149,-3 -16,-2 -33,-5 -50,-8 -4,-14 -11,-29 -25,-36 -14,-6 -30,-4 -39,8 -3,4 -6,8 -7,12 -2,-1 -4,-1 -5,-1 -13,-4 -108,-43 -118,-72 0,-2 0,-4 0,-5 0,-1 0,-1 1,-1zm567 159c1,0 1,0 2,0 17,4 33,3 49,12 20,11 34,31 34,54 2,61 -66,62 -108,46 11,-36 18,-74 23,-112zm4 -37c64,-56 138,19 132,91 -7,88 -96,137 -172,96 4,-10 7,-20 10,-30 47,27 119,20 127,-45 6,-50 -48,-102 -99,-86 0,0 0,0 -1,0 1,-9 2,-17 3,-26zm150 73c-2,-42 -24,-86 -65,-102 -28,-12 -61,-7 -83,12 2,-22 3,-43 4,-64 1,-4 -2,-6 -5,-7 -1,-1 -3,-3 -5,-3 0,-2 -1,-4 -4,-5 -95,-44 -209,-43 -312,-48 -60,-2 -121,-3 -181,-2 -24,0 -56,-6 -71,14 -1,0 -3,-1 -4,1 -2,1 -3,3 -4,4 0,1 -1,2 -1,3 -17,98 -13,205 23,293 -98,-33 -234,26 -203,148 15,61 81,95 133,118 75,33 156,53 236,69 81,17 162,21 245,7 66,-11 148,-23 202,-69 39,-34 63,-89 39,-138 -27,-57 -94,-72 -149,-83 0,0 -1,0 -1,0 3,-6 7,-13 9,-19 92,60 203,-26 197,-129z"/>
   <path class="fil1" d="M422 261c-9,-6 -21,-13 -26,-22 -8,-18 0,-16 7,-25 6,-6 9,-12 8,-21 0,-22 -25,-48 -41,-62 -6,-6 -15,1 -11,9 4,7 8,13 13,19 9,12 16,18 15,34 0,18 -3,11 -9,23 -2,3 -3,6 -3,10 -1,21 25,40 43,43 5,1 8,-5 4,-8z"/>
   <path class="fil1" d="M533 64c-8,-6 -18,7 -11,14 49,48 -13,43 -16,67 -3,23 36,30 12,58 -9,11 -23,9 -26,25 -3,14 7,23 16,31 4,4 10,0 8,-5 -7,-11 5,-29 11,-35 2,-2 6,-3 9,-5 5,-4 10,-9 12,-15 7,-21 -14,-29 -17,-46 -1,-11 23,-27 25,-45 1,-19 -9,-33 -23,-44z"/>
   <path class="fil1" d="M719 53c-9,19 -23,24 -20,47 2,14 5,12 -3,26 -10,16 -8,6 -20,13 -7,4 -13,2 -17,10 -8,12 4,29 10,40 3,6 11,14 12,20 10,58 -18,24 -31,33 -7,5 -8,0 -12,8 -2,3 -1,7 2,9 0,0 1,0 1,0 3,2 6,1 8,-1 19,-5 44,1 54,-22 14,-29 -26,-46 -24,-72 0,-8 36,-11 43,-29 6,-13 -2,-22 -2,-35 0,-15 13,-26 16,-40 2,-10 -13,-17 -17,-7z"/>
   <path class="fil1" d="M870 109c-1,-1 -2,-2 -2,-3 -3,-4 -7,-6 -11,-5 -7,2 -11,4 -15,10 -1,3 -1,6 -2,9 -1,10 -4,19 -9,27 -3,1 -5,2 -7,3 -6,5 -9,7 -11,14 -4,15 20,47 -5,56 -10,3 -23,-3 -34,0 -7,3 -13,7 -17,12 -6,7 -12,24 -2,29 2,1 5,1 7,0 0,-1 1,-1 1,-2 3,-4 -1,-12 -6,-8 17,-12 32,-11 51,-13 7,0 12,1 18,-2 9,-6 12,-15 14,-25 1,-11 -6,-23 -5,-33 1,-10 9,-13 14,-19 5,-6 9,-10 11,-17 1,-3 0,-22 3,-22 6,0 10,-6 7,-11z"/>
  </g>
 </g>
</svg>
