<?xml version="1.0" encoding="UTF-8"?>
<!DOCTYPE svg PUBLIC "-//W3C//DTD SVG 1.1//EN" "http://www.w3.org/Graphics/SVG/1.1/DTD/svg11.dtd">
<!-- Creator: CorelDRAW X7 -->
<svg xmlns="http://www.w3.org/2000/svg" xml:space="preserve" width="1074px" height="1024px" version="1.1" style="shape-rendering:geometricPrecision; text-rendering:geometricPrecision; image-rendering:optimizeQuality; fill-rule:evenodd; clip-rule:evenodd"
viewBox="0 0 1074 1024"
 xmlns:xlink="http://www.w3.org/1999/xlink">
 <defs>
  <style type="text/css">
   <![CDATA[
    .fil0 {fill:none}
    .fil1 {fill:#434546;fill-rule:nonzero}
   ]]>
  </style>
 </defs>
 <g id="Layer_x0020_1">
  <metadata id="CorelCorpID_0Corel-Layer"/>
  <rect class="fil0" width="1074" height="1024"/>
  <path class="fil1" d="M885 331c10,7 16,20 19,32 2,9 0,18 -1,28 -19,0 -38,11 -47,30 -6,-6 -14,-11 -22,-12 -3,-1 -7,-1 -10,-1 1,-12 0,-25 -3,-37 2,-18 18,-38 37,-43 3,1 6,1 8,-2 7,0 13,1 19,5zm50 97c6,29 -25,59 -49,68 0,0 0,0 0,0 -6,-4 -12,-7 -18,-9 11,-17 7,-40 -5,-57 1,-1 2,-2 3,-3 9,-12 21,-23 37,-23 14,0 29,10 32,24zm-82 158c-3,-8 -8,-14 -16,-18 -7,-4 -15,-5 -23,-4 4,-12 4,-25 1,-38 12,-28 50,-41 71,-14 22,31 -5,62 -33,74zm-48 71c-2,1 -3,2 -4,3 -4,-5 -8,-9 -14,-13 0,0 0,-1 -1,-1 0,0 0,0 0,0 0,0 0,0 -1,0 0,0 -1,0 -2,0 -3,-28 -3,-71 36,-71 49,0 21,78 -14,82zm-41 86c-22,-5 -32,-31 -28,-51 4,-23 23,-36 44,-40 0,0 0,0 1,1 14,11 21,27 21,46 1,22 -10,51 -38,44zm-78 -133c-1,-23 22,-34 42,-31 4,0 7,1 10,2 0,1 0,1 0,2 2,2 4,2 5,1 11,5 19,14 28,22 0,1 1,1 1,1 -3,13 -1,27 4,39 -5,0 -11,1 -15,3 -1,0 -1,-1 -2,-1 -27,1 -71,-3 -73,-38zm-34 -87c9,-33 52,-29 74,-13 -1,0 -1,1 -1,1 -7,20 -2,39 6,57 -5,-1 -9,-2 -14,-1 -11,0 -22,4 -30,11 -21,-11 -43,-28 -35,-55zm-42 -32c-18,-12 -21,-32 -8,-50 19,-27 50,-20 76,-8 1,0 2,0 2,0 0,2 -1,3 -1,5 -4,18 3,35 13,49 -16,-1 -32,3 -42,15 -14,-2 -28,-3 -40,-11zm-63 -123c18,-34 58,-24 85,-9 1,0 1,0 1,0 -6,17 -5,37 8,50 -16,1 -31,7 -43,17 -30,-4 -72,-21 -51,-58zm91 -101c27,8 37,35 42,60 -9,0 -18,2 -27,8 -6,4 -11,9 -15,15 0,0 0,0 0,0 -15,-12 -35,-18 -54,-17 1,-1 1,-2 1,-4 -7,-32 14,-74 53,-62zm89 102c-1,12 1,24 4,34 -5,-1 -10,-1 -15,0 -15,1 -26,10 -33,23 -7,-9 -18,-14 -29,-16 -18,-22 -18,-55 12,-68 26,-11 49,5 61,27zm-35 -89c5,-16 19,-31 38,-27 33,7 32,44 36,71 -19,1 -31,13 -36,29 -9,-14 -24,-23 -40,-26 1,0 2,-1 2,-2 -2,-15 -5,-30 0,-45zm88 202c1,-4 2,-9 2,-13 6,-24 18,-52 47,-48 31,4 33,40 29,64 0,0 0,0 0,1 -19,-1 -38,10 -46,28 -6,-15 -17,-28 -32,-32zm-15 10c19,-1 34,15 39,32 4,14 1,28 1,42 -9,3 -17,9 -22,16 -4,4 -7,10 -9,15 -8,-11 -20,-20 -32,-26 -10,-28 -18,-78 23,-79zm4 -12c-2,0 -4,0 -7,0 -13,1 -24,9 -32,20 -7,-5 -17,-10 -27,-12 -7,-11 -13,-25 -13,-39 0,-19 13,-35 33,-34 36,2 47,36 46,65zm-32 -112c1,-2 1,-4 2,-7 6,-16 21,-29 39,-24 33,9 33,45 36,72 -17,4 -29,20 -35,37 -7,-18 -21,-33 -39,-40 -2,-11 -5,-22 -3,-33 0,-1 1,-2 1,-4 0,0 -1,0 -1,-1zm88 -115c35,-1 38,37 32,62 -19,6 -35,22 -41,40 -8,-16 -21,-29 -40,-31 0,0 0,-1 0,-1l0 0c4,2 5,-3 3,-5 -1,-1 -2,-2 -2,-5 0,0 0,0 0,-1 1,-4 3,-11 6,-17 0,-1 0,-1 0,-2 3,-7 6,-14 7,-15 8,-13 20,-24 35,-25zm131 34c-12,-18 -34,-34 -57,-31 -12,1 -22,7 -28,17 -1,-3 -3,-7 -5,-10 -9,-17 -28,-27 -48,-23 -18,4 -32,18 -40,35 -19,-73 -13,-140 18,-211 4,-9 -7,-16 -13,-8 -35,60 -43,136 -22,203 -9,-12 -21,-19 -37,-20 -29,0 -42,24 -44,50 -10,-21 -29,-37 -55,-36 -40,0 -61,44 -47,78 0,1 1,2 2,2 -20,3 -39,13 -47,35 -15,40 22,64 57,67 -1,1 -2,2 -2,4 -10,16 -10,37 4,52 13,15 33,19 52,19 0,1 0,1 0,2 -16,30 8,63 38,72 -4,5 -7,10 -8,16 -9,37 34,62 68,60 -27,25 -28,77 14,93 50,21 70,-47 49,-86 23,2 41,-22 49,-41 3,-9 4,-20 2,-29 1,0 1,0 1,0 38,-14 67,-61 35,-95 35,-4 70,-53 53,-87 -6,-13 -17,-20 -30,-23 12,-27 -6,-68 -33,-77 -4,-1 -7,-1 -11,-1 2,-9 3,-17 3,-25 13,-39 60,-11 74,12 16,27 7,57 -25,64 -5,1 -5,10 0,11 19,3 36,-10 44,-27 9,-21 2,-44 -11,-62z"/>
  <path class="fil1" d="M484 669c3,1 5,-2 4,-4 -6,-7 53,-51 55,-52 17,-11 36,-21 56,-23 20,22 37,47 53,72 -26,3 -55,27 -67,47 -1,3 2,5 4,3 11,-11 22,-22 37,-30 11,-5 22,-7 33,-10 4,6 8,13 12,19 12,21 24,42 36,63 -40,0 -74,38 -97,66 -2,3 1,7 4,4 16,-16 32,-33 51,-44 15,-9 31,-12 48,-15 13,23 26,47 39,71 -26,2 -50,17 -64,39 -2,4 3,7 6,4 15,-21 37,-33 63,-34 20,38 39,77 58,115 -93,-29 -180,-71 -255,-134 -69,-58 -171,-155 -136,-255 19,-54 60,-57 99,-41 -25,5 -46,18 -62,38 -2,2 2,5 4,3 19,-20 43,-31 71,-33 0,0 1,0 2,0 14,7 26,17 37,27 5,5 10,10 15,15 -20,4 -39,15 -56,27 -17,12 -49,34 -53,56 0,2 0,3 1,4 1,0 2,1 2,2zm-210 -206c-36,-8 -176,-15 -180,-71 -1,-43 73,-40 101,-33 30,8 57,24 82,41 26,17 49,36 71,56 -51,-35 -112,-54 -174,-50 -3,0 -3,4 -1,4 91,6 170,41 229,108 -38,-27 -82,-46 -128,-55zm-2 -87c-36,-42 -84,-87 -74,-148 4,-29 10,-32 38,-40 25,2 43,11 62,28 0,1 0,1 0,1 12,19 21,41 30,61 32,73 57,148 95,217 -54,-79 -99,-162 -151,-243 -1,-2 -4,0 -3,2 38,98 102,189 164,273 0,1 1,1 1,2 0,0 -1,0 -1,0 0,0 0,0 -1,-1 -42,-53 -97,-111 -160,-148 1,-1 2,-2 0,-4zm332 202c-55,-63 -111,-97 -157,-61 -40,-68 -68,-141 -98,-214 -17,-43 -40,-136 -98,-143 -37,-4 -61,34 -66,66 -9,61 34,111 76,148 -22,-12 -45,-22 -68,-28 -27,-6 -101,-2 -106,33 -22,43 54,70 84,78 38,9 77,12 115,21 49,13 93,37 136,65 0,0 0,0 0,0 -58,88 23,192 83,252 86,85 196,151 316,174 2,0 3,-1 4,-2 3,-1 6,-4 4,-8 -9,-17 -29,-61 -57,-116 1,-2 0,-7 -4,-7 -28,-53 -62,-115 -99,-171 0,-1 -1,-2 -2,-3 -18,-27 -36,-52 -55,-74 4,-3 3,-10 -3,-10 -2,0 -3,0 -5,0z"/>
 </g>
</svg>
