<?xml version="1.0" encoding="UTF-8"?>
<!DOCTYPE svg PUBLIC "-//W3C//DTD SVG 1.1//EN" "http://www.w3.org/Graphics/SVG/1.1/DTD/svg11.dtd">
<!-- Creator: CorelDRAW X7 -->
<svg xmlns="http://www.w3.org/2000/svg" xml:space="preserve" width="1074px" height="1024px" version="1.1" style="shape-rendering:geometricPrecision; text-rendering:geometricPrecision; image-rendering:optimizeQuality; fill-rule:evenodd; clip-rule:evenodd"
viewBox="0 0 1074 1024"
 xmlns:xlink="http://www.w3.org/1999/xlink">
 <defs>
  <style type="text/css">
   <![CDATA[
    .fil0 {fill:none}
    .fil1 {fill:#434546;fill-rule:nonzero}
   ]]>
  </style>
 </defs>
 <g id="Layer_x0020_1">
  <metadata id="CorelCorpID_0Corel-Layer"/>
  <rect class="fil0" width="1074" height="1024"/>
  <path class="fil1" d="M689 883c-60,74 -198,39 -273,13 1,-1 2,-3 2,-5 -6,-132 -13,-264 -20,-395 -6,-127 -6,-256 -20,-382 98,75 252,62 353,-1 -16,124 -19,249 -26,373 -7,131 -20,266 -16,397zm-312 -780c0,0 0,-1 0,-1 0,0 0,-1 0,-1 0,0 0,0 0,0 3,-3 86,-20 91,-20 27,-3 55,-4 83,-4 28,-1 56,-1 84,2 8,0 89,19 91,15 -2,3 -1,5 1,7 -54,33 -113,51 -177,50 -63,0 -117,-20 -173,-46 0,-1 0,-1 0,-2zm364 0c0,-2 -1,-3 -3,-4 1,-2 1,-5 0,-7 -9,-20 -56,-21 -75,-24 -44,-7 -89,-6 -133,-4 -23,1 -165,0 -162,38 0,0 0,0 0,0 -2,1 -2,2 -1,4 1,0 1,1 2,1 -2,129 10,260 16,389 6,131 13,263 19,395 0,3 3,5 5,6 -1,2 -1,6 2,7 76,39 229,66 290,-13 1,-2 1,-5 0,-7 12,-129 11,-261 17,-390 7,-130 21,-261 23,-391z"/>
  <path class="fil1" d="M411 379c95,-23 178,-25 272,6 0,0 0,0 0,1 -82,37 -202,67 -272,-7zm267 267c-4,72 -20,155 -5,227 0,0 0,0 0,0 -34,29 -74,37 -119,36 -22,0 -119,-6 -124,-39 0,-1 0,-1 -1,-2 0,-84 -4,-168 -7,-252 -2,-76 -2,-153 -11,-228 63,73 195,48 272,8 0,84 -2,167 -5,250zm14 -266c0,-3 -2,-5 -4,-6 -85,-34 -194,-38 -279,0 -1,-1 -3,-1 -3,1 0,0 0,0 0,1 0,0 0,1 0,1 0,1 0,2 0,3 0,0 0,1 0,2 -3,80 4,161 7,242 2,83 4,166 6,249 0,3 4,5 7,4 3,28 79,38 97,40 52,5 112,3 153,-35 0,0 0,0 0,0 0,3 4,2 4,0 0,-2 0,-4 0,-6 0,0 0,0 0,0 5,-79 5,-159 8,-238 4,-85 6,-170 6,-254 0,-2 -1,-4 -2,-4z"/>
 </g>
</svg>
