<?xml version="1.0" encoding="UTF-8"?>
<!DOCTYPE svg PUBLIC "-//W3C//DTD SVG 1.1//EN" "http://www.w3.org/Graphics/SVG/1.1/DTD/svg11.dtd">
<!-- Creator: CorelDRAW X7 -->
<svg xmlns="http://www.w3.org/2000/svg" xml:space="preserve" width="1024px" height="1024px" version="1.1" style="shape-rendering:geometricPrecision; text-rendering:geometricPrecision; image-rendering:optimizeQuality; fill-rule:evenodd; clip-rule:evenodd"
viewBox="0 0 1024 1024"
 xmlns:xlink="http://www.w3.org/1999/xlink">
 <defs>
  <style type="text/css">
   <![CDATA[
    .str0 {stroke:white;stroke-width:4.99961}
    .str1 {stroke:white;stroke-width:4.99961}
    .fil0 {fill:none}
    .fil5 {fill:#FEFEFE;fill-rule:nonzero}
    .fil2 {fill:#C8BB9F;fill-rule:nonzero}
    .fil4 {fill:#8D0801;fill-rule:nonzero}
    .fil6 {fill:#8D0801;fill-rule:nonzero}
    .fil3 {fill:#BF3100;fill-rule:nonzero}
    .fil7 {fill:red;fill-rule:nonzero}
    .fil1 {fill:url(#id0)}
    .fil8 {fill:url(#id1)}
   ]]>
  </style>
  <linearGradient id="id0" gradientUnits="userSpaceOnUse" x1="61.5" y1="425.206" x2="938.388" y2="425.206">
   <stop offset="0" style="stop-opacity:1; stop-color:#66C6F0"/>
   <stop offset="0.0117647" style="stop-opacity:1; stop-color:#9D804D"/>
   <stop offset="1" style="stop-opacity:1; stop-color:#011527"/>
  </linearGradient>
  <linearGradient id="id1" gradientUnits="userSpaceOnUse" x1="61.5" y1="594.058" x2="938.388" y2="594.058">
   <stop offset="0" style="stop-opacity:1; stop-color:#001427"/>
   <stop offset="1" style="stop-opacity:1; stop-color:#F4D58D"/>
  </linearGradient>
 </defs>
 <g id="Layer_x0020_1">
  <metadata id="CorelCorpID_0Corel-Layer"/>
  <rect class="fil0" width="1024" height="1024"/>
  <path class="fil1 str0" d="M938 324c-78,-132 -275,-120 -459,-29 -201,98 -305,269 -319,342l42 15c-54,29 -98,55 -98,55 -26,-40 -42,-162 -42,-162l24 35c51,-151 253,-358 453,-410 198,-51 388,-43 399,154z"/>
  <g id="_465149048">
   <path class="fil2 str1" d="M260 505c0,0 -1,0 -2,-1l-70 -45c-2,-1 -3,-4 -1,-6 0,-1 2,-1 3,-1 1,0 2,0 2,0l71 45c2,2 2,4 1,6 -1,1 -2,2 -4,2z"/>
   <path class="fil2 str1" d="M291 468c-1,0 -2,0 -3,-1l-58 -53c-2,-2 -2,-4 0,-6 1,-1 2,-2 3,-2 1,0 2,1 3,2l58 53c2,2 2,4 0,6 -1,1 -2,1 -3,1z"/>
   <path class="fil2 str1" d="M326 431c-1,0 -2,0 -3,-1l-48 -63c-2,-2 -2,-5 0,-6 1,-1 2,-1 3,-1 1,0 2,1 3,2l49 63c1,2 1,4 -1,6 -1,0 -2,0 -3,0z"/>
   <path class="fil2 str1" d="M273 486c-1,0 -2,-1 -3,-1l-47 -39c-2,-2 -2,-4 -1,-6 1,-1 2,-2 3,-2 1,0 2,1 3,1l48 39c1,2 2,4 0,6 -1,1 -2,2 -3,2z"/>
   <path class="fil2 str1" d="M309 451c-1,0 -2,0 -3,-1l-74 -79c-1,-1 -1,-4 0,-5 1,-1 2,-2 3,-2 1,0 2,1 3,2l74 78c2,2 2,5 0,6 -1,1 -2,1 -3,1z"/>
   <path class="fil2 str1" d="M347 418c-1,0 -3,-1 -3,-2l-34 -49c-1,-2 0,-5 2,-6 0,-1 1,-1 2,-1 1,0 3,1 3,2l33 49c2,2 1,5 -1,6 0,1 -1,1 -2,1z"/>
   <path class="fil2 str1" d="M367 403c-1,0 -2,0 -3,-2l-41 -74c-1,-2 -1,-4 1,-5 1,-1 2,-1 2,-1 2,0 3,1 4,2l41 74c1,2 0,5 -2,6 0,0 -1,0 -2,0z"/>
   <path class="fil2 str1" d="M388 393c-1,0 -3,-1 -3,-2l-26 -56c-1,-2 0,-4 2,-5 1,0 2,0 2,0 2,0 3,0 4,2l25 55c1,2 0,5 -2,6 0,0 -1,0 -2,0z"/>
   <path class="fil2 str1" d="M413 385c-2,0 -3,-1 -4,-2l-27 -77c-1,-3 0,-5 2,-6 1,0 1,0 1,0 2,0 4,1 4,3l28 77c1,2 0,4 -2,5 -1,0 -1,0 -2,0z"/>
   <path class="fil2 str1" d="M755 505c-2,0 -3,-1 -4,-2 -1,-2 -1,-4 1,-6l71 -45c0,0 1,0 2,0 1,0 3,0 3,1 2,2 1,5 -1,6l-70 45c-1,1 -2,1 -2,1z"/>
   <path class="fil2 str1" d="M724 468c-1,0 -2,0 -3,-1 -2,-2 -2,-4 0,-6l58 -53c1,-1 2,-2 3,-2 1,0 2,1 3,2 2,2 2,4 0,6l-58 53c-1,1 -2,1 -3,1z"/>
   <path class="fil2 str1" d="M688 431c0,0 -1,0 -2,0 -2,-2 -2,-4 -1,-6l49 -63c1,-1 2,-2 3,-2 1,0 2,0 3,1 1,1 2,4 0,6l-48 63c-1,1 -2,1 -4,1z"/>
   <path class="fil2 str1" d="M742 486c-1,0 -3,-1 -3,-2 -2,-2 -2,-4 0,-6l48 -39c1,0 2,-1 3,-1 1,0 2,1 3,2 1,2 1,4 -1,6l-47 39c-1,0 -2,1 -3,1z"/>
   <path class="fil2 str1" d="M706 451c-1,0 -2,0 -3,-1 -2,-1 -2,-4 0,-6l74 -78c1,-1 2,-2 3,-2 1,0 2,1 3,2 1,1 1,4 0,5l-74 79c-1,1 -2,1 -3,1z"/>
   <path class="fil2 str1" d="M668 418c-1,0 -2,0 -2,-1 -2,-1 -3,-4 -2,-6l34 -49c0,-1 2,-2 3,-2 1,0 2,0 2,1 2,1 3,4 1,6l-33 49c0,1 -2,2 -3,2z"/>
   <path class="fil2 str1" d="M648 403c-1,0 -2,0 -3,0 -2,-1 -2,-4 -1,-6l41 -74c1,-1 2,-2 3,-2 1,0 2,0 2,1 3,1 3,3 2,5l-41 74c-1,2 -2,2 -3,2z"/>
   <path class="fil2 str1" d="M626 393c0,0 -1,0 -1,0 -2,-1 -3,-4 -2,-6l25 -55c1,-2 2,-2 4,-2 0,0 1,0 1,0 3,1 3,3 3,5l-26 56c0,1 -2,2 -4,2z"/>
   <path class="fil2 str1" d="M602 385c-1,0 -1,0 -2,0 -2,-1 -3,-3 -2,-5l28 -77c0,-2 2,-3 3,-3 1,0 1,0 2,0 2,1 3,3 2,6l-27 77c-1,1 -2,2 -4,2z"/>
   <path class="fil3 str1" d="M510 354c-160,0 -291,125 -299,283l598 0c-8,-158 -139,-283 -299,-283z"/>
   <path class="fil4 str1" d="M818 697c-6,7 -19,12 -28,12l-568 0c-9,0 -22,-6 -28,-13l-28 -33c-6,-7 -3,-12 6,-12l676 0c9,0 12,5 5,11l-35 35z"/>
   <path class="fil5 str1" d="M400 398c0,0 -73,29 -106,89 -34,61 -40,109 -40,109l44 0c0,0 2,-50 29,-99 27,-49 73,-99 73,-99z"/>
   <path class="fil6 str1" d="M500 329c17,0 31,11 36,26 9,1 18,2 26,4 -4,-31 -30,-55 -62,-55 -33,0 -60,26 -62,59 9,-2 17,-4 26,-5 4,-17 19,-29 36,-29z"/>
   <path class="fil7 str1" d="M496 243c0,0 -40,-23 -19,-53 22,-31 32,-36 40,-50 8,-15 9,-27 9,-27 0,0 21,22 12,46 -9,24 -34,43 -39,55 -6,13 -3,29 -3,29z"/>
   <path class="fil7 str1" d="M548 178c0,0 -4,8 -16,22 -11,14 -26,33 -26,43 -2,22 16,25 16,25 0,0 -3,-25 13,-44 20,-23 13,-46 13,-46z"/>
  </g>
  <path class="fil8 str0" d="M62 695c78,132 275,120 459,30 200,-99 305,-269 319,-343l-42 -14c54,-29 98,-56 98,-56 26,40 42,162 42,162l-24 -35c-51,151 -253,359 -453,410 -198,52 -388,43 -399,-154z"/>
 </g>
</svg>
