<?xml version="1.0" encoding="UTF-8"?>
<!DOCTYPE svg PUBLIC "-//W3C//DTD SVG 1.1//EN" "http://www.w3.org/Graphics/SVG/1.1/DTD/svg11.dtd">
<!-- Creator: CorelDRAW X7 -->
<svg xmlns="http://www.w3.org/2000/svg" xml:space="preserve" width="1024px" height="1024px" version="1.1" style="shape-rendering:geometricPrecision; text-rendering:geometricPrecision; image-rendering:optimizeQuality; fill-rule:evenodd; clip-rule:evenodd"
viewBox="0 0 1024 1024"
 xmlns:xlink="http://www.w3.org/1999/xlink">
 <defs>
  <style type="text/css">
   <![CDATA[
    .str0 {stroke:white;stroke-width:0.45}
    .fil1 {fill:none}
    .fil0 {fill:white;fill-rule:nonzero}
   ]]>
  </style>
 </defs>
 <g id="Layer_x0020_1">
  <metadata id="CorelCorpID_0Corel-Layer"/>
  <path class="fil0 str0" d="M414 377c-2,1 -4,3 -7,5 -2,-14 -4,-28 -6,-41 0,-2 0,-4 -1,-5 -14,-87 -31,-173 -49,-259 1,0 2,0 3,0 5,-3 10,-5 15,-6 31,99 34,203 45,306zm9 11c1,0 3,-1 4,-2 25,-14 51,-17 74,13 24,32 25,95 -25,101 -38,5 -65,-42 -43,-72 11,-15 35,-23 45,-3 9,17 -4,35 -18,44 1,-3 0,-6 -2,-8 -4,-3 -7,-8 -8,-13 -1,-8 -14,-6 -13,2 2,8 6,16 13,21 2,2 4,2 6,1 -2,5 2,12 8,9 19,-12 32,-29 28,-53 -3,-18 -18,-29 -36,-28 -24,2 -43,28 -45,50 -2,22 14,45 33,55 36,20 68,0 80,-30 12,11 17,28 7,43 -30,5 -61,8 -93,10 -20,-12 -31,-28 -38,-50 3,-11 3,-22 -1,-32 -4,-9 -9,-16 -16,-22 4,-1 7,-4 5,-8 5,-5 10,-10 15,-14 3,0 5,-2 6,-5 4,-3 9,-6 14,-9zm52 -62c13,-2 19,-1 24,12 4,11 6,22 8,33 -2,2 -4,3 -6,4 -1,1 -2,2 -2,3 -8,-7 -18,-13 -30,-16 -15,-3 -29,1 -42,8 -2,-11 -3,-21 -4,-31 17,-5 35,-10 52,-13zm98 39l0 1c0,7 10,9 12,3 3,1 5,2 8,4 18,12 25,34 41,48 26,24 60,35 96,28 28,-6 53,-30 58,-59 9,15 10,33 3,50 -19,7 -39,14 -58,21 -1,-1 -3,-2 -5,-2 -30,6 -59,15 -89,4 -2,0 -4,0 -6,1 -2,-55 -63,-107 -118,-67l0 1c-3,-5 -5,-8 -8,-12l2 -1c20,-13 42,-24 64,-20zm59 -23c-12,5 -22,12 -27,24 -4,-3 -7,-6 -12,-8 -2,-1 -4,-1 -5,-2 6,-17 27,-15 44,-14zm41 5l-3 1c-21,18 -20,46 0,63 18,15 53,9 64,-11 13,-24 -8,-33 -29,-29 -8,1 -7,14 1,13 26,-5 17,17 -3,22 -33,8 -42,-33 -20,-51 17,-14 43,-11 62,-4 27,9 37,33 22,57 -15,26 -47,33 -75,29 -26,-3 -49,-21 -64,-43 -4,-6 -8,-12 -13,-17 3,-23 33,-29 58,-30zm224 12c-16,20 -36,38 -53,59 -1,2 -1,4 -1,5 -12,4 -24,8 -37,12 6,-24 0,-48 -19,-66l-2 -1c-6,-12 -19,-22 -32,-27 48,3 96,13 144,18zm64 166c-12,8 -25,14 -38,20 1,-27 -22,-16 -41,-11 1,-5 2,-11 3,-16 1,-3 -3,-8 -7,-7 -10,3 -19,8 -28,11 5,-12 14,-21 19,-33 2,-6 -3,-10 -8,-8 -14,5 -27,13 -41,18 8,-10 17,-19 25,-29 4,-5 -2,-12 -8,-10 -11,5 -23,12 -34,18 10,-10 22,-19 31,-30 2,-3 1,-6 -1,-8 3,-1 5,-2 8,-3 10,51 77,69 120,88zm-68 37c-29,19 -56,41 -88,56 -36,17 -52,-26 -72,-48 -9,-8 -17,-17 -26,-24 0,-4 -4,-7 -8,-6 -14,-12 -30,-23 -45,-34 -3,-1 -6,-1 -8,1l-1 -2 0 0c46,-14 91,-32 137,-48 -8,5 -15,11 -21,19 -4,5 2,12 7,9 7,-3 14,-7 21,-11 -4,4 -8,9 -11,14 -3,4 0,11 6,10 11,-3 21,-7 31,-12 -6,7 -12,14 -16,22 -2,4 2,10 7,9 15,-4 29,-11 43,-18 -6,10 -13,19 -16,31 -1,4 4,8 7,7 11,-2 21,-6 31,-10 -1,5 -2,10 -2,16 0,3 4,5 8,5 8,-1 35,-17 33,0 0,1 0,2 0,3 -6,3 -12,7 -17,11zm-61 59c-7,87 -17,173 -32,259 -6,3 -12,6 -18,9 6,-6 12,-13 17,-20 4,-6 -1,-12 -7,-10 -15,6 -28,13 -41,21 7,-7 15,-14 22,-21 6,-6 -1,-14 -8,-10 -23,14 -45,30 -67,45 25,-27 55,-51 82,-77 6,-6 -1,-14 -8,-10 -23,14 -45,30 -68,46 28,-28 58,-53 87,-79 5,-4 0,-14 -6,-11l-2 1 0 0 0 0c-26,16 -50,35 -75,53 26,-24 54,-47 83,-68 7,-5 -1,-15 -8,-10 -25,18 -51,36 -77,53 26,-25 55,-47 83,-70 6,-5 -1,-14 -8,-10 -25,18 -50,37 -75,54 28,-28 61,-51 92,-77 7,-5 -1,-14 -7,-10 -36,27 -70,59 -110,79 11,-15 23,-28 36,-40 25,-17 48,-40 71,-59 6,-5 -2,-15 -8,-10 -24,19 -50,39 -72,60 -10,6 -19,11 -29,15 14,-23 33,-43 54,-60 10,-9 21,-17 31,-25 7,-5 -1,-15 -7,-10 -11,8 -22,16 -32,25 -16,13 -32,24 -50,34 11,-27 43,-47 63,-66 6,-6 -1,-14 -8,-10 -17,11 -34,24 -52,35 16,-19 37,-35 53,-54 1,-1 2,-3 1,-5 6,7 12,14 17,22 13,18 20,29 43,26 13,-2 27,-8 40,-16l0 1zm-83 280l-1 1c-8,4 -17,7 -26,11 15,-10 30,-19 45,-28 -6,5 -12,10 -18,16zm-45 19c-18,8 -35,16 -52,25l-1 1c2,-72 -6,-143 -5,-215 1,-29 2,-58 3,-88 2,2 5,3 7,2 4,-1 7,-3 11,-4 -5,6 -10,13 -14,20 -3,6 3,11 8,9 5,-3 11,-5 16,-8 -9,11 -16,24 -18,38 0,5 5,9 9,7 4,-2 8,-4 12,-7 -8,10 -15,21 -21,32 -2,4 3,9 7,8 6,-1 11,-2 16,-4 -8,10 -16,21 -23,32 -3,6 2,12 8,10 6,-2 11,-5 17,-7 -6,6 -12,13 -17,20 -4,6 3,12 9,9 4,-3 8,-5 12,-7 -8,8 -15,16 -22,25 -4,6 3,12 9,9 5,-3 10,-6 15,-10 -10,10 -20,21 -29,32 -4,5 2,13 8,9 12,-6 23,-14 35,-22 -15,14 -29,29 -42,46 -4,6 4,12 10,9 12,-8 24,-16 35,-25 -16,16 -30,32 -43,50 -4,7 3,13 9,9 13,-8 25,-16 37,-24 -3,3 -6,7 -9,10 -3,4 -1,8 3,9zm-26 -339c6,-9 13,-17 21,-25 2,2 5,4 7,6 -10,6 -19,13 -28,19zm37 -11l0 0c5,5 9,9 13,14 -2,-1 -4,-1 -6,1 -17,14 -33,29 -52,40 14,-19 33,-34 45,-55zm-66 11c6,0 11,-2 16,-4 -4,6 -8,12 -10,19 -2,5 3,11 8,9 6,-4 12,-7 18,-11 -12,13 -24,25 -32,40 1,-17 1,-35 0,-53zm-3 -64c15,9 29,19 42,30 -10,8 -22,18 -35,21 4,-10 10,-19 15,-28 5,-6 -6,-14 -10,-7 -4,6 -7,11 -10,17 -1,-12 -2,-24 -4,-36 1,1 1,2 2,3zm-16 -20l-3 0c4,-7 5,-15 6,-22l1 0c15,5 29,6 44,6 -16,5 -32,11 -48,16zm8 457c-96,5 -192,16 -288,5l-1 0 0 0c-18,-61 -36,-122 -61,-180l1 0c12,-4 22,-12 31,-22 -7,13 -14,25 -16,40 -1,5 5,8 9,7 5,-2 9,-4 13,-6 -7,13 -12,27 -13,42 0,5 4,9 9,7 6,-3 12,-6 18,-10 -5,8 -9,16 -12,25 -2,5 3,10 8,8 23,-9 39,-27 57,-41 -15,26 -39,51 -34,81 1,5 6,7 10,4 22,-16 40,-34 61,-51 -10,17 -22,34 -25,55 -1,4 3,7 7,7 22,-3 38,-18 56,-28 -9,16 -20,30 -27,47 -2,5 2,9 7,9 22,-2 37,-18 55,-30 -4,8 -8,16 -11,24 -3,7 8,12 12,4 5,-13 12,-25 18,-39 2,-5 -3,-9 -9,-8 -20,7 -35,26 -55,33 9,-17 22,-32 28,-51 2,-6 -3,-10 -8,-8 -21,7 -37,25 -58,32 7,-24 25,-43 34,-66 2,-6 -5,-10 -10,-7 -26,17 -48,40 -73,59 4,-29 35,-56 44,-83 1,-4 -3,-11 -9,-8 -22,12 -38,32 -59,45 14,-27 34,-51 50,-77 4,-7 -5,-14 -10,-8 -19,23 -35,49 -59,65 7,-37 38,-66 55,-99 3,-7 -7,-12 -11,-6 -16,20 -30,48 -52,61 8,-25 27,-45 35,-70 1,-3 0,-5 -2,-7 34,4 68,9 103,10 46,2 67,-30 90,-65 30,-42 55,-87 87,-127 8,71 1,143 0,215 -1,71 8,141 5,212zm-364 -206l1 -1c8,-3 15,-8 22,-13 -6,10 -11,20 -15,31 -2,-6 -5,-12 -8,-17zm-5 -34c-2,5 -4,10 -4,15 -6,-11 -11,-22 -18,-33 8,0 15,1 23,2 14,1 28,3 42,5 -10,10 -20,20 -32,27 0,-4 1,-8 1,-12 4,-7 -8,-12 -12,-4zm77 -6l-1 0c-15,16 -28,39 -47,52 8,-19 20,-36 29,-55 7,1 13,2 19,3zm285 -199c-7,8 -13,17 -19,25 -1,-2 -3,-3 -5,-4 -13,-2 -26,-5 -40,-6 12,-2 24,-5 35,-7 2,3 6,6 10,2 2,-2 4,-4 6,-6 4,-1 9,-3 13,-4zm-21 -7c-9,3 -17,5 -26,7 23,-43 -9,-97 -60,-92 -1,-3 -3,-6 -4,-9l3 -1c58,-43 126,44 87,95zm-82 -41c2,-10 2,-21 0,-32 43,-2 66,47 40,82l-1 1c-7,2 -14,3 -21,4 7,-20 0,-41 -18,-55zm-440 212c15,-22 33,-40 50,-60 26,-30 47,-67 90,-73 33,-5 68,3 101,4 35,1 71,-1 106,-4l1 1c2,1 5,1 6,-1 10,-1 19,-2 28,-2 -2,3 0,7 3,9 25,13 55,8 81,16 -29,4 -60,-9 -90,-2 -4,1 -7,5 -5,9 7,14 20,22 34,27 -17,-2 -34,-3 -50,5 -4,2 -5,7 -3,10 4,6 9,11 15,15 -8,0 -16,3 -24,8 -2,1 -2,5 -1,7 3,10 10,17 18,21 -1,0 -2,0 -3,1 -4,1 -7,6 -4,10 2,2 4,4 6,5l-1 0c-8,1 -7,14 1,13 10,-2 20,-2 30,0 7,1 11,-10 4,-12 -7,-2 -13,-3 -18,-6 11,0 22,1 33,1 8,0 9,-10 1,-12 -8,-2 -17,-4 -26,-5 -7,-2 -15,-5 -22,-9 4,-9 10,-11 17,-9 21,3 39,12 60,12 8,0 9,-10 1,-12 -24,-6 -54,-11 -71,-29 28,-9 61,7 90,4 6,-1 7,-10 1,-12 -20,-9 -55,-13 -71,-31 34,-4 67,12 100,-1 4,-2 6,-9 2,-11 -26,-15 -56,-11 -83,-19 22,-6 46,-7 70,-4 0,2 2,4 5,5 12,0 23,1 35,1 -20,28 -38,57 -57,86 -14,22 -29,47 -49,65 -21,19 -57,12 -82,9 -109,-13 -218,-28 -329,-30zm95 -284c45,-15 91,-25 139,-31l0 0c6,16 13,31 19,46 -3,-1 -7,-1 -11,-1 -28,-3 -58,12 -76,34 -18,24 -16,60 -13,89 -6,0 -12,1 -18,2l0 -3c-14,-45 -27,-90 -40,-136zm47 -306l1 -1c9,-6 19,-13 28,-19 25,56 45,113 63,172 18,61 30,123 53,182 -5,-4 -11,-7 -18,-9 -48,-106 -83,-217 -127,-325zm160 392c-1,1 -2,3 -2,5 -15,35 -78,54 -87,3 -4,-22 50,-34 47,-13 0,8 12,10 13,1 4,-38 -50,-24 -66,-7 -2,1 -3,3 -4,5 -20,14 -15,37 -14,59 -3,-1 -6,-1 -9,-1 -5,0 -10,-1 -14,-1 -3,-30 -5,-61 15,-86 17,-24 51,-30 79,-21 2,2 5,3 7,2 11,4 20,11 27,19 9,12 11,24 8,35zm-101 19c11,25 59,42 83,25 8,-6 15,-15 21,-24 6,14 14,25 25,34 -10,1 -20,1 -30,2 -33,1 -65,0 -98,-2l0 -2c-1,-9 -3,-22 -1,-33zm100 -149c2,15 5,31 7,46 -5,4 -9,8 -13,12 -6,-19 -12,-37 -17,-56 7,-1 15,-2 23,-2zm-18 -288c-8,2 -15,5 -22,8 -3,1 -4,3 -4,6 -4,-1 -8,2 -7,7 18,84 35,169 49,254 -9,1 -17,2 -25,3 -10,-35 -18,-70 -28,-105 -18,-61 -40,-121 -66,-179 -2,-4 -7,-5 -10,-3 -12,8 -23,16 -35,24 -2,2 -2,3 -2,5 -3,1 -5,4 -4,8 35,86 65,175 100,261 -50,6 -97,17 -144,33 -4,1 -5,5 -4,9 13,47 28,95 42,142 -6,2 -13,4 -19,8 -24,13 -42,40 -58,60 -21,26 -45,49 -62,77 -2,4 -1,10 4,10 53,1 105,4 157,9 0,2 0,3 1,4 49,83 76,174 103,266 1,3 4,4 7,3 0,2 2,4 5,4 98,12 197,0 295,-4 4,-1 6,-4 5,-8 1,0 1,-1 1,-3l0 0c2,1 4,2 7,1 47,-26 98,-42 146,-64 4,1 8,-1 9,-5 16,-88 26,-177 32,-266 0,-4 -2,-6 -5,-7 14,-9 27,-19 38,-27 32,-23 69,-37 102,-58 4,-3 2,-9 -2,-11 -38,-20 -116,-36 -124,-86 3,-1 3,-4 1,-7l1 0c19,-24 41,-44 60,-69 2,-3 0,-9 -5,-10 -80,-5 -158,-24 -239,-18 -33,2 -85,-13 -96,23 -20,-3 -38,3 -56,12 -3,-19 -8,-48 -29,-51 -21,-3 -47,7 -68,13 -9,-89 -15,-179 -42,-265 -2,-4 -6,-5 -9,-4z"/>
  <rect class="fil1" width="1024" height="1024"/>
 </g>
</svg>
