<?xml version="1.0" encoding="UTF-8"?>
<!DOCTYPE svg PUBLIC "-//W3C//DTD SVG 1.1//EN" "http://www.w3.org/Graphics/SVG/1.1/DTD/svg11.dtd">
<!-- Creator: CorelDRAW X7 -->
<svg xmlns="http://www.w3.org/2000/svg" xml:space="preserve" width="1024px" height="1024px" version="1.1" style="shape-rendering:geometricPrecision; text-rendering:geometricPrecision; image-rendering:optimizeQuality; fill-rule:evenodd; clip-rule:evenodd"
viewBox="0 0 1024 1024"
 xmlns:xlink="http://www.w3.org/1999/xlink">
 <defs>
  <style type="text/css">
   <![CDATA[
    .fil0 {fill:white}
    .fil4 {fill:#F59175;fill-rule:nonzero}
    .fil5 {fill:#E56C57;fill-rule:nonzero}
    .fil1 {fill:#CB3965;fill-rule:nonzero}
    .fil6 {fill:#463743;fill-rule:nonzero}
    .fil7 {fill:#453643;fill-rule:nonzero}
    .fil3 {fill:#4B424F;fill-rule:nonzero}
    .fil2 {fill:#453D49;fill-rule:nonzero}
   ]]>
  </style>
 </defs>
 <g id="Layer_x0020_1">
  <metadata id="CorelCorpID_0Corel-Layer"/>
  <rect class="fil0" width="1024" height="1024"/>
  <g id="_580399472">
   <polygon class="fil1" points="220,647 499,524 565,524 832,656 832,969 206,969 "/>
   <path class="fil2" d="M660 569l0 402 128 0c2,-15 4,-28 5,-39 4,-57 35,-288 35,-288l-168 -75z"/>
   <path class="fil2" d="M398 567l-176 78c0,0 34,227 38,284 1,11 3,25 5,42l133 0 0 -404z"/>
   <path class="fil3" d="M766 971c-6,-119 39,-315 49,-326 15,-8 24,10 24,10 0,0 45,164 81,316l-154 0z"/>
   <path class="fil3" d="M284 971c7,-119 -38,-315 -48,-326 -15,-8 -24,10 -24,10 0,0 -45,164 -81,316l153 0z"/>
   <path class="fil4" d="M541 642l0 0c39,-4 68,-38 66,-78l-11 -155 -137 0 2 162c1,42 38,75 80,71z"/>
   <path class="fil5" d="M541 642l0 3c39,-4 69,-37 69,-75 0,-2 0,-4 0,-6l-11 -159 -143 0 2 166 0 0c1,41 35,74 76,74 2,0 5,0 7,0l0 -3 -1 -3c-2,0 -4,0 -6,0 -38,0 -69,-30 -69,-68l0 0 -3 -159 131 0 10 153c0,1 1,3 1,5 0,35 -28,65 -64,69l1 3z"/>
   <path class="fil5" d="M527 564c35,1 62,-14 80,-44l-8 -115 -143 0 2 124c19,20 38,34 69,35z"/>
   <path class="fil4" d="M386 279c-7,3 -11,12 -12,20 -2,22 5,45 19,62 3,2 5,5 9,7 22,10 14,-56 11,-66 -2,-11 -13,-29 -27,-23z"/>
   <path class="fil5" d="M386 279l-2 -4c-5,2 -8,6 -10,10 -2,4 -4,9 -4,14 0,2 -1,5 -1,8 0,20 8,41 21,56 3,3 6,6 10,8 2,1 4,2 6,2 3,0 6,-2 8,-4 3,-3 5,-8 6,-13 1,-5 1,-11 1,-17 0,-8 -1,-16 -1,-23 -1,-7 -2,-12 -2,-15 -2,-5 -5,-12 -9,-17 -2,-3 -5,-5 -8,-7 -3,-2 -6,-3 -10,-3 -2,0 -5,0 -7,1l2 4 1 4c2,-1 3,-1 4,-1 2,0 4,1 6,2 3,2 6,5 8,8 2,4 4,8 4,11 1,2 2,8 2,14 1,7 2,14 2,22 0,7 -1,15 -2,19 -1,3 -2,5 -3,6 -1,0 -1,1 -2,1 0,0 -1,-1 -3,-1 -2,-1 -4,-3 -6,-6 -12,-14 -19,-33 -19,-51 0,-3 0,-5 0,-7 1,-4 2,-8 3,-11 2,-3 4,-5 6,-6l-1 -4z"/>
   <path class="fil5" d="M390 305c0,-2 0,-3 1,-3l0 0 0 -1 0 0 0 0 0 0 0 0 0 0 0 0 0 0 0 0 0 0 0 0 0 0 0 0 0 0 0 0 0 0 0 0c0,0 0,0 1,1 0,1 0,2 0,2 2,7 3,15 3,22l5 0 3 -2c0,-1 -1,-2 -2,-2 -1,0 -2,-1 -3,-1 -1,0 -2,1 -3,1l0 0c-1,1 -2,2 -3,3 0,1 0,2 0,2l0 0c-1,2 -1,3 -1,5 0,4 1,8 4,11 2,3 6,6 10,7 2,1 4,-1 5,-3 0,-2 -1,-5 -3,-5 -2,-1 -4,-2 -6,-4 -1,-2 -2,-4 -2,-6 0,-1 0,-2 1,-2l0 0 0 -1 -1 0 1 0 0 0 -1 0 1 0 -1 -1 0 1 1 0 -1 -1 0 1 0 0 -1 -1 0 2 1 -1 -1 -1 0 2 0 -3 -1 2 1 1 0 -3 -1 2 1 -2 -2 1c0,1 1,1 1,1l1 -2 -2 1c1,2 3,3 5,2 2,0 3,-2 3,-4 0,-8 -1,-16 -4,-24 0,-2 -1,-4 -2,-5 -1,-1 -2,-2 -3,-3 -1,-1 -2,-1 -4,-1l0 0c-2,0 -3,0 -5,1 -1,1 -2,2 -2,3l0 0c-2,3 -2,5 -2,6 -1,2 1,5 3,5 2,1 4,-1 5,-3z"/>
   <path class="fil4" d="M678 279c7,3 11,12 12,20 2,22 -5,45 -19,62 -3,2 -5,5 -9,7 -22,10 -14,-56 -11,-66 2,-11 13,-29 27,-23z"/>
   <path class="fil5" d="M678 279l-1 4c2,1 4,3 6,6 1,3 3,7 3,11 0,2 0,4 0,7 0,18 -7,37 -19,51l0 0c-2,3 -4,5 -6,6 -2,0 -2,1 -3,1 -1,0 -1,-1 -2,-1 -1,-2 -3,-5 -4,-10 0,-4 -1,-9 -1,-15 0,-8 1,-15 2,-22 0,-6 1,-12 2,-14 1,-4 3,-10 7,-14 1,-2 3,-4 5,-5 2,-1 4,-2 6,-2 1,0 3,0 4,1l1 -4 2 -4c-2,-1 -5,-1 -7,-1 -4,0 -7,1 -10,3 -5,3 -8,7 -11,11 -3,5 -5,9 -6,13 0,3 -1,8 -2,15 0,7 -1,15 -1,23 0,8 1,16 2,22 1,3 3,6 5,8 2,2 5,4 8,4 2,0 4,-1 6,-2 4,-2 7,-5 10,-8l0 0c13,-15 21,-36 21,-56 0,-3 -1,-6 -1,-8 0,-5 -2,-10 -4,-14 -2,-4 -5,-8 -10,-10l-2 4z"/>
   <path class="fil5" d="M682 303c0,-1 0,-3 -2,-6 0,-1 -1,-2 -2,-3 -2,-1 -3,-1 -5,-1l0 0c-2,0 -3,0 -4,1 -2,1 -3,3 -4,4 -1,1 -1,3 -1,4l0 0c-3,8 -4,16 -4,24 0,2 2,4 3,4 2,1 4,0 5,-2l-2 -1 1 2c0,0 1,0 1,-1l-2 -1 1 2 -1 -2 0 3 1 -1 -1 -2 0 3 0 -2 -1 1 1 1 0 -2 -1 1 0 0 0 -1 -1 1 1 0 0 -1 -1 1 1 0 -1 0 0 0 1 0 -1 0 0 0 1 1 0 0c0,0 0,1 0,2 0,2 -1,4 -2,6 -2,2 -4,3 -6,4 -2,0 -3,3 -3,5 1,2 3,4 5,3 4,-1 8,-4 10,-7 3,-3 4,-7 4,-11 0,-2 0,-3 0,-5l0 0c-1,0 -1,-1 -1,-2 -1,-1 -2,-2 -3,-3l0 0c-1,0 -2,-1 -3,-1 -1,0 -2,1 -3,1 -1,0 -2,1 -2,2l3 2 5 0c0,-7 1,-15 3,-22l0 0c0,-1 0,-2 1,-2l0 -1 0 0 0 0 0 0 0 0 0 0 0 0 0 0 0 0 0 0 0 0 0 0 0 0 0 0 0 0 0 0 0 0 0 1c1,0 1,1 1,3 1,2 3,4 5,3 2,0 4,-3 3,-5l0 0z"/>
   <path class="fil4" d="M405 295c2,-20 5,-41 10,-60 8,-30 26,-58 54,-73 31,-17 68,-20 102,-13 25,6 49,19 63,41 16,22 18,56 20,83 4,39 0,79 -9,117 -9,31 -22,62 -44,86 -17,19 -40,33 -66,34 -5,0 -9,0 -13,-1 -28,-4 -52,-23 -69,-45 -26,-33 -41,-75 -46,-117 -2,-17 -3,-34 -2,-52z"/>
   <path class="fil5" d="M405 295l5 0c1,-20 4,-40 9,-59 7,-29 25,-56 52,-70 20,-11 43,-16 65,-16 12,0 23,1 34,3 24,6 47,19 61,39 7,10 12,24 14,38 3,15 4,30 5,43 1,10 1,21 1,31 0,29 -3,57 -11,85 -7,31 -21,61 -42,84 -17,19 -39,32 -64,33 0,0 -1,0 -1,0 -4,0 -7,0 -10,-1 -14,-2 -26,-7 -38,-15 -11,-7 -21,-17 -29,-28 -25,-33 -40,-74 -45,-116 -1,-11 -2,-22 -2,-34 0,-5 0,-11 1,-17l-5 0 -4 0c0,6 0,12 0,17 0,12 0,24 2,35 5,43 20,86 46,120 9,11 20,22 32,30 12,8 26,14 41,16 3,1 7,1 11,1 0,0 1,0 2,0 27,-1 51,-16 69,-35 23,-25 36,-56 45,-88 7,-28 11,-58 11,-87 0,-11 -1,-21 -2,-31 -1,-14 -2,-29 -5,-44 -2,-15 -7,-30 -15,-42 -16,-22 -40,-36 -66,-42 -12,-2 -24,-4 -36,-4 -24,0 -48,6 -69,17 -30,16 -48,45 -56,76 -5,19 -9,40 -10,61l4 0z"/>
   <path class="fil6" d="M584 435c-11,-19 -33,-32 -55,-31 -23,0 -42,9 -52,29 -2,0 -6,-1 -9,-2 -17,-9 -30,-20 -42,-40 -11,-19 -17,-53 -19,-78 -5,28 -5,102 14,139 19,38 40,72 82,82 37,9 79,-7 104,-36 44,-53 49,-123 50,-140 1,-6 0,-40 -6,-46 -2,-2 -4,27 -5,32 -2,16 -12,37 -20,51 -9,15 -27,30 -42,40z"/>
   <path class="fil4" d="M528 426c-14,6 -30,12 -35,13 11,7 27,11 40,11 6,0 28,-4 31,-12 0,-1 -31,-9 -36,-12z"/>
   <path class="fil6" d="M653 289c1,1 1,3 1,4 -1,-1 -1,-3 -1,-4z"/>
   <path class="fil6" d="M421 251c-7,23 -9,46 -12,70 -2,-9 -3,-19 -3,-28 0,-4 0,-8 -2,-12 -2,-3 -7,-6 -10,-7 -6,0 -8,1 -8,1 0,0 -3,-15 -4,-20 -2,-9 -4,-19 -3,-29 0,-3 0,-6 0,-9 0,-1 0,-1 0,-2l0 0c1,-20 2,-40 5,-60 6,-31 17,-60 40,-82 57,-53 160,-43 210,20 6,7 11,16 14,25 2,4 1,11 3,15 3,6 11,2 17,5 6,3 11,10 13,17 3,7 3,14 4,21 4,35 7,71 -10,101 -4,-1 -10,0 -13,3 -4,3 -5,9 -6,13 -2,9 -5,21 -4,31 -2,-18 -4,-36 -14,-52 -6,-9 -15,-17 -22,-26 -10,-14 -17,-31 -17,-48 -12,6 -23,9 -35,13 -12,4 -25,7 -37,9 -30,5 -64,5 -94,-2 -5,11 -9,22 -12,33z"/>
   <path class="fil5" d="M534 395c-3,-1 -6,-2 -8,-3 -2,-2 -4,-3 -5,-5 -2,-2 -2,-5 -2,-8 0,-2 0,-4 0,-6 2,-22 4,-44 6,-66 0,-2 -1,-4 -4,-4 -2,0 -4,1 -4,4 -2,21 -4,43 -6,65 0,2 0,4 0,7 0,4 0,8 3,12 2,4 5,6 8,8 3,2 6,3 9,4 2,0 5,-1 5,-3 1,-2 0,-5 -2,-5z"/>
   <path class="fil6" d="M465 339c-15,-2 -12,-25 3,-23 15,1 12,25 -3,23z"/>
   <path class="fil7" d="M422 297c11,-1 22,-5 33,-5 12,0 23,7 34,6 6,0 11,-7 8,-13 -9,-12 -28,-14 -42,-14 -14,0 -29,4 -38,17 -3,3 1,9 5,9z"/>
   <path class="fil6" d="M591 339c15,-2 12,-25 -3,-23 -15,1 -12,25 3,23z"/>
   <path class="fil7" d="M639 288c-9,-13 -24,-17 -39,-17 -13,0 -32,2 -41,14 -4,6 2,13 8,13 11,1 22,-6 33,-6 12,0 22,4 34,5 4,0 8,-6 5,-9z"/>
   <path class="fil1" d="M435 294c-7,1 -13,3 -18,7 -2,1 -3,3 -4,6 -3,8 -2,19 -1,27 2,10 7,18 16,24 12,8 29,11 44,7 14,-4 25,-14 30,-28 3,-9 5,-18 5,-25 0,-12 -10,-15 -19,-16 -5,0 -11,-1 -16,-1 -13,0 -24,-1 -34,-1 -1,0 -2,0 -3,0zm28 80c-14,1 -28,-2 -39,-9 -11,-7 -18,-18 -19,-30 -2,-8 -3,-21 1,-30 1,-5 3,-8 6,-10 7,-6 16,-8 26,-8 10,-1 21,0 34,0 6,1 11,1 17,1 16,1 26,10 26,24 0,10 -3,20 -6,27 -6,17 -18,29 -35,33 -3,1 -7,2 -11,2z"/>
   <path class="fil1" d="M570 299c-8,0 -16,3 -16,15 0,8 3,17 5,24 5,14 16,23 29,26 13,3 28,-1 38,-8 7,-6 12,-14 13,-23 1,-7 1,-16 -2,-23 0,-3 -2,-5 -3,-6 -4,-4 -10,-6 -17,-6 -8,0 -18,0 -29,0 -5,0 -10,0 -16,0 0,0 -1,0 -2,1zm32 74c-5,0 -10,0 -15,-1 -17,-3 -29,-15 -36,-32 -2,-6 -5,-17 -5,-26 0,-14 10,-23 26,-24 5,0 11,0 16,0 11,0 21,0 29,0 9,1 16,3 22,8 3,2 5,5 6,9 3,8 3,19 2,27 -1,11 -7,21 -17,28 -7,6 -17,10 -28,11z"/>
   <path class="fil1" d="M552 311c-15,-2 -26,-2 -42,1l-2 -8c17,-3 29,-3 45,-1l-1 8z"/>
   <path class="fil1" d="M432 287l-36 -1 -1 28 11 2c0,0 0,-15 11,-19 10,-4 16,-4 16,-4l0 -5 -1 -1z"/>
   <path class="fil1" d="M622 290l36 1 0 28 -11 1c0,0 0,-16 -10,-20 -11,-3 -16,-4 -16,-4l0 -5 1 -1z"/>
  </g>
 </g>
</svg>
