<?xml version="1.0" encoding="UTF-8"?>
<!DOCTYPE svg PUBLIC "-//W3C//DTD SVG 1.1//EN" "http://www.w3.org/Graphics/SVG/1.1/DTD/svg11.dtd">
<!-- Creator: CorelDRAW X7 -->
<svg xmlns="http://www.w3.org/2000/svg" xml:space="preserve" width="1500px" height="1200px" version="1.1" style="shape-rendering:geometricPrecision; text-rendering:geometricPrecision; image-rendering:optimizeQuality; fill-rule:evenodd; clip-rule:evenodd"
viewBox="0 0 1500 1200"
 xmlns:xlink="http://www.w3.org/1999/xlink">
 <defs>
  <style type="text/css">
   <![CDATA[
    .str1 {stroke:white;stroke-width:9.99921}
    .str0 {stroke:white;stroke-width:9.72756}
    .fil0 {fill:none}
    .fil5 {fill:#FEFEFE;fill-rule:nonzero}
    .fil1 {fill:#EE325D;fill-rule:nonzero}
    .fil6 {fill:#282828;fill-rule:nonzero}
    .fil3 {fill:url(#id0)}
    .fil2 {fill:url(#id1)}
    .fil4 {fill:url(#id2)}
   ]]>
  </style>
  <linearGradient id="id0" gradientUnits="userSpaceOnUse" x1="213.739" y1="585.22" x2="238.032" y2="719.846">
   <stop offset="0" style="stop-opacity:1; stop-color:#FBDA25"/>
   <stop offset="1" style="stop-opacity:1; stop-color:#FBE456"/>
  </linearGradient>
  <linearGradient id="id1" gradientUnits="userSpaceOnUse" x1="639.559" y1="770.145" x2="544.202" y2="219.333">
   <stop offset="0" style="stop-opacity:1; stop-color:#282828"/>
   <stop offset="1" style="stop-opacity:1; stop-color:#5E605F"/>
  </linearGradient>
  <linearGradient id="id2" gradientUnits="userSpaceOnUse" xlink:href="#id1" x1="888.293" y1="474.203" x2="988.307" y2="1009.88">
  </linearGradient>
 </defs>
 <g id="Layer_x0020_1">
  <metadata id="CorelCorpID_0Corel-Layer"/>
  <rect class="fil0" width="1500" height="1200"/>
  <polygon class="fil1 str0" points="1128,538 397,918 432,690 1163,310 "/>
  <path class="fil2 str1" d="M846 351l1 -1 -827 105 1143 -145 -35 228 -271 35 -365 46 -29 4 0 1 -440 55 0 0 0 -223 823 -105zm-826 104l0 0z"/>
  <polygon class="fil3" points="0,681 0,681 452,624 452,624 "/>
  <polygon class="fil4 str1" points="1480,566 1480,790 1392,801 1392,801 1392,801 1296,812 1296,812 1244,818 1244,818 1244,818 1148,829 1148,829 1148,829 1052,841 1052,841 1052,841 956,852 956,852 956,852 860,863 860,863 668,886 668,886 616,892 616,892 616,892 520,904 520,904 520,904 424,915 424,915 397,918 432,690 495,682 "/>
  <path class="fil5" d="M401 583c-27,3 -39,-10 -36,-41l26 -8c-3,20 2,29 13,28 4,-1 8,-2 10,-5 3,-3 4,-6 5,-11 1,-4 1,-8 0,-11 -1,-3 -3,-6 -4,-8 -2,-2 -5,-4 -8,-7l-18 -14c-5,-5 -8,-9 -11,-14 -2,-5 -2,-12 -1,-20 2,-12 7,-21 16,-29 8,-7 18,-11 31,-13 6,-1 10,-1 15,0 4,1 7,3 10,5 2,2 4,4 5,8 2,3 2,6 3,10 0,4 0,8 0,13l-26 7c1,-3 1,-5 1,-8 0,-2 0,-4 0,-6 0,-2 -1,-4 -2,-5 -1,-2 -2,-3 -4,-3 -2,-1 -4,-1 -6,0 -4,0 -8,2 -10,5 -3,2 -5,6 -5,10 -1,5 -1,9 1,11 1,3 4,6 7,9l18 15c3,2 5,5 7,7 2,3 4,6 6,9 2,3 3,7 3,11 1,4 0,8 0,13 -2,11 -7,20 -16,28 -8,8 -18,12 -30,14z"/>
  <path class="fil5" d="M500 485l10 -1c8,-1 13,-4 17,-7 3,-3 5,-9 7,-17 1,-5 1,-8 1,-11 0,-2 0,-5 -1,-7 -1,-1 -3,-3 -6,-3 -3,-1 -6,0 -11,0l-9 1 -8 45zm-42 89l25 -149 45 -6c26,-3 37,9 33,38 -3,14 -8,24 -16,31 -9,8 -20,12 -33,14l-15 2 -11 67 -28 3z"/>
  <polygon class="fil5" points="558,562 583,412 649,404 645,423 608,428 601,471 630,467 627,487 598,490 590,540 627,535 624,554 "/>
  <path class="fil5" d="M682 548c-7,1 -12,1 -17,0 -5,-1 -9,-3 -12,-5 -3,-2 -5,-6 -6,-10 -2,-4 -2,-8 -3,-13 0,-5 1,-10 2,-16l9 -52c1,-7 2,-13 4,-18 2,-5 4,-10 7,-14 2,-5 6,-9 10,-12 3,-3 8,-6 13,-8 6,-2 12,-4 19,-5 8,-1 14,0 19,1 6,1 9,4 12,7 3,4 4,8 5,13 0,5 0,11 -1,17l-2 13 -28 4 2 -13c2,-8 2,-13 2,-15 -1,-5 -5,-7 -11,-7 0,0 -1,0 -1,0 -3,1 -5,1 -7,2 -2,1 -3,2 -5,3 -1,1 -2,3 -3,4 -1,2 -2,3 -3,6 0,2 -1,4 -1,6 -1,1 -1,4 -1,6l-11 64c-2,9 -1,15 0,18 2,4 6,5 12,4 2,0 3,0 5,-1 2,-1 3,-1 4,-2 1,-1 2,-2 3,-4 1,-1 2,-2 3,-3 0,-2 1,-3 1,-5 1,-2 1,-4 1,-5 1,-2 1,-4 1,-6l3 -13 27 -4 -2 13c-1,5 -2,10 -4,15 -1,4 -3,9 -6,13 -3,4 -6,8 -9,11 -4,3 -8,5 -13,7 -5,2 -11,4 -18,4z"/>
  <polygon class="fil5" points="745,539 770,389 799,386 774,536 "/>
  <path class="fil5" d="M835 477l21 -3 0 -60 -21 63zm-45 57l56 -154 30 -3 7 145 -27 3 0 -33 -27 3 -12 35 -27 4z"/>
  <polygon class="fil5" points="898,520 923,371 952,367 930,498 968,493 964,512 "/>
  <path class="fil5" d="M644 833c2,0 4,1 7,0 2,0 5,-1 7,-2 2,-1 4,-2 5,-3 1,-2 3,-4 4,-6 1,-2 1,-4 2,-6 1,-2 1,-5 2,-7l11 -68c1,-4 1,-7 1,-9 0,-3 0,-5 -1,-7 -1,-2 -2,-3 -4,-4 -2,-1 -5,-1 -9,-1 -3,1 -6,2 -8,3 -3,1 -5,3 -6,5 -1,3 -3,5 -3,8 -1,2 -2,5 -2,9l-12 68c0,2 -1,5 -1,7 0,2 0,4 1,6 0,2 1,3 1,4 1,2 3,2 5,3zm3 20c-16,2 -27,0 -32,-8 -6,-7 -7,-19 -5,-35l10 -55c1,-8 3,-15 5,-21 3,-6 6,-12 10,-17 5,-4 10,-8 16,-11 6,-3 14,-5 22,-6 16,-2 27,1 32,9 6,7 8,19 5,34l-9 56c-2,8 -4,14 -6,21 -3,6 -6,11 -10,16 -5,5 -10,9 -16,12 -6,2 -14,4 -22,5z"/>
  <polygon class="fil5" points="714,844 739,694 803,686 800,705 764,709 757,753 785,749 782,769 754,772 742,840 "/>
  <polygon class="fil5" points="793,834 818,684 882,677 879,695 843,700 836,743 865,740 862,759 833,762 822,830 "/>
  <polygon class="fil5" points="872,824 897,675 963,667 960,686 923,690 916,733 945,730 942,749 912,753 904,802 942,797 938,816 "/>
  <path class="fil5" d="M998 725l7 -1c8,-1 14,-3 19,-7 4,-4 6,-10 8,-18 1,-8 1,-14 -2,-17 -2,-3 -8,-4 -16,-3l-9 1 -7 45zm-43 89l25 -149 36 -5c8,-1 15,-1 21,0 5,0 10,2 14,4 4,3 7,6 8,11 1,5 1,12 0,19 -2,9 -4,17 -8,24 -4,6 -10,11 -17,14l9 71 -28 4 -7 -66 -13 1 -12 69 -28 3z"/>
  <path class="fil6" d="M0 414l851 -107c1,0 2,1 2,2 0,1 -1,2 -2,2l-851 107 0 -4z"/>
  <path class="fil6" d="M622 938c-1,0 -2,-1 -2,-2 0,-1 0,-2 1,-2l879 -106 0 4 -878 106 0 0z"/>
  <path class="fil6" d="M1148 581c-1,0 -2,-1 -2,-2 0,-1 1,-2 2,-2l310 -39c1,0 2,0 2,2 0,1 -1,2 -2,2l-310 39 0 0z"/>
  <path class="fil6" d="M38 708c-1,0 -2,0 -2,-1 0,-2 1,-3 2,-3l390 -48c1,0 3,0 3,1 0,2 -1,3 -2,3l-390 48 -1 0z"/>
  <path class="fil6" d="M787 948c-1,0 -2,-1 -2,-2 0,-1 1,-2 2,-3l389 -47c1,0 2,1 2,2 0,1 -1,2 -2,2l-389 48 0 0z"/>
  <path class="fil6" d="M240 358c-1,0 -2,0 -2,-1 0,-2 0,-3 2,-3l365 -46c1,0 2,1 2,2 0,1 -1,2 -2,3l-365 45 0 0z"/>
 </g>
</svg>
